<?xml version="1.0" encoding="UTF-8" standalone="no"?>
<!-- Created with Inkscape (http://www.inkscape.org/) -->

<svg
   version="1.1"
   id="svg32"
   width="742.50531"
   height="260.65601"
   viewBox="0 0 742.50533 260.65601"
   sodipodi:docname="LogoPronto.svg"
   inkscape:version="1.2.1 (9c6d41e410, 2022-07-14, custom)"
   xmlns:inkscape="http://www.inkscape.org/namespaces/inkscape"
   xmlns:sodipodi="http://sodipodi.sourceforge.net/DTD/sodipodi-0.dtd"
   xmlns="http://www.w3.org/2000/svg"
   xmlns:svg="http://www.w3.org/2000/svg">
  <defs
     id="defs36">
    <clipPath
       clipPathUnits="userSpaceOnUse"
       id="clipPath62">
      <path
         d="M 0,768 H 1366 V 0 H 0 Z"
         id="path60" />
    </clipPath>
  </defs>
  <sodipodi:namedview
     id="namedview34"
     pagecolor="#505050"
     bordercolor="#eeeeee"
     borderopacity="1"
     inkscape:showpageshadow="0"
     inkscape:pageopacity="0"
     inkscape:pagecheckerboard="0"
     inkscape:deskcolor="#505050"
     showgrid="false"
     inkscape:zoom="0.54589844"
     inkscape:cx="304.08587"
     inkscape:cy="139.22004"
     inkscape:window-width="1362"
     inkscape:window-height="709"
     inkscape:window-x="0"
     inkscape:window-y="0"
     inkscape:window-maximized="1"
     inkscape:current-layer="g40">
    <inkscape:page
       x="0"
       y="0"
       id="page38"
       width="742.50531"
       height="260.65601" />
  </sodipodi:namedview>
  <g
     id="g40"
     inkscape:groupmode="layer"
     inkscape:label="Page 1"
     transform="matrix(1.3333333,0,0,-1.3333333,-539.41332,642.32785)">
    <path
       d="M 961.439,357.07 H 404.56 v 51.429 h 556.879 z"
       style="fill:#ffaa00;fill-opacity:1;fill-rule:nonzero;stroke:none"
       id="path42" />
    <g
       id="g44"
       transform="translate(773.792,286.2539)">
      <path
         d="M 0,0 -101.842,93.649 -8.192,195.492 93.65,101.842 Z"
         style="fill:#1a5fff;fill-opacity:1;fill-rule:nonzero;stroke:none"
         id="path46" />
    </g>
    <g
       id="g48"
       transform="translate(774.5254,334.4678)">
      <path
         d="M 0,0 -55.325,40.368 -14.957,95.693 40.368,55.325 Z"
         style="fill:#ffffff;fill-opacity:1;fill-rule:nonzero;stroke:none"
         id="path50" />
    </g>
    <g
       id="g52"
       transform="translate(766.9629,443.8076)">
      <path
         d="M 0,0 -7.105,10.772 6.741,23.259 12.571,12.572 Z"
         style="fill:#ffaa00;fill-opacity:1;fill-rule:nonzero;stroke:none"
         id="path54" />
    </g>
    <g
       id="g56">
      <g
         id="g58"
         clip-path="url(#clipPath62)">
        <g
           id="g64"
           transform="translate(757.6172,439.5391)">
          <path
             d="m 0,0 0.021,-85.139 -19.371,-6.307 0.252,-23.654 c 0,0 11.052,-0.95 26.605,7.069 l 4.339,18.411 -0.192,65.179 c 0.979,-1.019 16.817,-12.944 17.096,-13.355 -0.181,-0.585 -8.957,-23.378 -8.957,-23.378 l 9.954,4.793 13.76,23.778 C 43.507,-32.603 -0.002,0.264 0,0"
             style="fill:#ffaa00;fill-opacity:1;fill-rule:nonzero;stroke:none"
             id="path66" />
        </g>
        <g
           id="g68"
           transform="translate(509.5728,328.3613)">
          <path
             d="M 0,0 -15.744,74.66 -37.221,34.201 -58.413,75.12 -73.168,-0.01 -84.241,4.024 -63.082,111.21 -37.535,62.038 -11.227,111.288 11.485,4.098 Z"
             style="fill:#000000;fill-opacity:1;fill-rule:nonzero;stroke:none"
             id="path70" />
        </g>
        <g
           id="g72"
           transform="translate(582.9966,382.5967)">
          <path
             d="M 0,0 -21.947,33.961 -44.522,0.538 -21.966,-34.526 Z m 15.261,-0.405 -37.207,-57.571 -37.647,58.523 37.792,56.395 z"
             style="fill:#000000;fill-opacity:1;fill-rule:nonzero;stroke:none"
             id="path74" />
        </g>
        <g
           id="g76"
           transform="translate(657.729,344.7637)">
          <path
             d="M 0,0 -46.289,-16.479 V 87.235 l 12.231,2.487 V 1.402 L 0,13.45 v 73.78 l 12.012,2.492 V -13.843 L 0,-16.479 Z"
             style="fill:#000000;fill-opacity:1;fill-rule:nonzero;stroke:none"
             id="path78" />
        </g>
        <g
           id="g80"
           transform="translate(721.4717,428.1489)">
          <path
             d="m 0,0 -21.978,-25.546 33.309,-40.553 -32.668,-37.572 -7.023,11.12 22.906,26.345 -33.018,40.318 31.932,37.278 z"
             style="fill:#000000;fill-opacity:1;fill-rule:nonzero;stroke:none"
             id="path82" />
        </g>
        <g
           id="g84"
           transform="translate(876.9844,332.9668)">
          <path
             d="M 0,0 -11.631,-3.438 -45.689,52.3 -7.895,103.713 0.011,94.93 -31.589,51.697 Z M -47.227,-2.046 -59.459,-4.683 V 99.175 l 12.232,2.49 z"
             style="fill:#000000;fill-opacity:1;fill-rule:nonzero;stroke:none"
             id="path86" />
        </g>
        <g
           id="g88"
           transform="translate(942.623,462.9766)">
          <path
             d="M 0,0 -17.432,-17.358 H -23.51 L -12.744,0 Z m -34.717,-114.625 3.996,10.897 28.25,-15.335 -18.233,61.371 -27.437,-73.987 -9.939,5.629 38.158,102.613 35.817,-118.068 z"
             style="fill:#000000;fill-opacity:1;fill-rule:nonzero;stroke:none"
             id="path90" />
        </g>
      </g>
    </g>
  </g>
</svg>
