<?xml version="1.0" encoding="UTF-8" standalone="no"?>
<!-- Generator: Adobe Illustrator 25.2.3, SVG Export Plug-In . SVG Version: 6.00 Build 0)  -->

<svg
   xmlns:dc="http://purl.org/dc/elements/1.1/"
   xmlns:cc="http://creativecommons.org/ns#"
   xmlns:rdf="http://www.w3.org/1999/02/22-rdf-syntax-ns#"
   xmlns:svg="http://www.w3.org/2000/svg"
   xmlns="http://www.w3.org/2000/svg"
   xmlns:sodipodi="http://sodipodi.sourceforge.net/DTD/sodipodi-0.dtd"
   xmlns:inkscape="http://www.inkscape.org/namespaces/inkscape"
   version="1.1"
   id="Pattern"
   x="0px"
   y="0px"
   viewBox="0 0 1366 768"
   style="enable-background:new 0 0 1366 768;"
   xml:space="preserve"
   sodipodi:docname="iopattern.svg"
   inkscape:version="0.92.5 (2060ec1f9f, 2020-04-08)"><metadata
   id="metadata3192"><rdf:RDF><cc:Work
       rdf:about=""><dc:format>image/svg+xml</dc:format><dc:type
         rdf:resource="http://purl.org/dc/dcmitype/StillImage" /><dc:title></dc:title></cc:Work></rdf:RDF></metadata><defs
   id="defs3190"><filter
     inkscape:label="Opacity"
     style="color-interpolation-filters:sRGB;"
     id="filter3694"><feColorMatrix
       values="1 0 0 0 0 0 1 0 0 0 0 0 1 0 0 0 0 0 5 -1 "
       result="colormatrix"
       id="feColorMatrix3690" /><feComposite
       in2="colormatrix"
       operator="arithmetic"
       k2="0.1"
       result="composite"
       id="feComposite3692" /></filter></defs><sodipodi:namedview
   pagecolor="#ffffff"
   bordercolor="#666666"
   borderopacity="1"
   objecttolerance="10"
   gridtolerance="10"
   guidetolerance="10"
   inkscape:pageopacity="0"
   inkscape:pageshadow="2"
   inkscape:window-width="640"
   inkscape:window-height="480"
   id="namedview3188"
   showgrid="false"
   inkscape:zoom="0.22181552"
   inkscape:cx="683"
   inkscape:cy="384"
   inkscape:window-x="0"
   inkscape:window-y="27"
   inkscape:window-maximized="0"
   inkscape:current-layer="Pattern" />
<style
   type="text/css"
   id="style2939">
	.st0{fill:#FFFFFF;}
	.st1{fill:#FFAA00;}
</style>
<rect
   id="Fundo"
   class="st0"
   width="1366"
   height="768" />
<g
   id="Notas"
   style="filter:url(#filter3694)">
	<path
   id="Musica_1_"
   class="st1"
   d="M46.1,19.8l24.1,54.4l-10.6,9.5l6.9,15c0,0,7.3-2.5,15-12l-2.4-13L60.4,32.1   c0.9,0.4,14.4,3.5,14.7,3.7c0.1,0.4,0.9,17.5,0.9,17.5l5-5.9l2.1-19.1C83.1,28.3,46,19.6,46.1,19.8z" />
	<path
   id="Musica_3_"
   class="st1"
   d="M129.1,19.5l-13.6,30.8l-8-0.8l-3.7,8.6c0,0,3.9,2.1,10.8,1.7l4.5-6l10.3-23.6   c0.2,0.5,4,7.4,4.1,7.6c-0.2,0.2-7,7-7,7l4.4-0.1l8.8-6.4C139.7,38.2,129.2,19.4,129.1,19.5z" />
	<path
   id="Musica_2_"
   class="st1"
   d="M154.2,21.3l17.5,39.6l-7.7,6.9l5,10.9c0,0,5.3-1.8,10.9-8.8l-1.8-9.4l-13.5-30.2   c0.7,0.3,10.5,2.6,10.7,2.7c0,0.3,0.7,12.7,0.7,12.7l3.6-4.3l1.5-13.9C181.1,27.5,154.2,21.2,154.2,21.3z" />
	<path
   id="Musica_7_"
   class="st1"
   d="M238.2,20.4l-26,59.2l-15.4-1.5l-7.1,16.5c0,0,7.4,4,20.7,3.2l8.7-11.5l19.8-45.4   c0.4,1,7.7,14.1,7.8,14.5c-0.3,0.4-13.4,13.5-13.4,13.5l8.4-0.3l16.8-12.3C258.5,56.4,238.3,20.2,238.2,20.4z" />
	<path
   id="Musica_19_"
   class="st1"
   d="M268.9,23.6l22.3,46.2l-8.9,8.5l6.3,12.8c0,0,6.3-2.4,12.6-10.8l-2.5-11.1l-17.1-35.4   c0.8,0.3,12.5,2.6,12.8,2.8c0.1,0.4,1.2,15,1.2,15l4.2-5.2l1.3-16.5C301.1,30,268.9,23.5,268.9,23.6z" />
	<path
   id="Musica_18_"
   class="st1"
   d="M342.8,21l-15.3,37.3l-9.9-0.8l-4.1,10.4c0,0,4.8,2.5,13.3,1.9l5.3-7.2l11.6-28.6   c0.3,0.6,5.3,8.8,5.4,9c-0.2,0.2-8.3,8.6-8.3,8.6l5.4-0.2l10.5-7.8C356.7,43.3,342.9,20.9,342.8,21z" />
	<path
   id="Musica_11_"
   class="st1"
   d="M379.8,20.5l18.6,44.7l-8.8,7.5l5.3,12.4c0,0,6-1.9,12.4-9.5L405.5,65l-14.3-34.2   c0.7,0.3,11.7,3.1,11.9,3.3c0,0.3,0.4,14.2,0.4,14.2l4.2-4.7l2-15.5C409.7,28.1,379.7,20.4,379.8,20.5z" />
	<path
   id="Musica_10_"
   class="st1"
   d="M468.6,19.1l-23.2,54.8l-14.2-1.2L425,87.9c0,0,6.9,3.6,19,2.7l7.8-10.7l17.7-42   c0.4,0.9,7.3,12.9,7.4,13.3c-0.3,0.3-12.1,12.6-12.1,12.6l7.7-0.4l15.3-11.5C487.7,51.9,468.7,18.9,468.6,19.1z" />
	<path
   id="Musica_9_"
   class="st1"
   d="M498.8,22.9l19.7,27.3l-4.8,6.5l5.5,7.5c0,0,3.8-2.2,6.9-8.4l-2.9-6.9L508.2,28   c0.5,0.1,8.4,0.3,8.6,0.3c0.1,0.2,2.5,9.6,2.5,9.6l2.1-3.8l-1.1-10.8C520.3,23.3,498.7,22.8,498.8,22.9z" />
	<path
   id="Musica_8_"
   class="st1"
   d="M567.2,20.4l-15.7,40.3l-10.3-0.6l-4.2,11.3c0,0,5.1,2.5,13.9,1.6l5.4-7.9l11.9-30.9   c0.3,0.7,5.6,9.2,5.6,9.5c-0.2,0.2-8.5,9.4-8.5,9.4l5.6-0.4l10.9-8.7C581.8,43.9,567.2,20.3,567.2,20.4z" />
	<path
   id="Musica_6_"
   class="st1"
   d="M591.6,20.6L621,78.2l-10.9,11l8.3,15.9c0,0,7.8-3.2,15.6-14l-3.4-14l-22.6-44.1   c1,0.4,15.8,3,16.2,3.1c0.1,0.5,2,18.9,2,18.9l5.1-6.7l1.1-20.8C632.3,27.7,591.5,20.4,591.6,20.6z" />
	<path
   id="Musica_5_"
   class="st1"
   d="M690.3,20.8l-23.1,45.9l-12.1-1.9l-6.3,12.8c0,0,5.7,3.5,16.2,3.4l7.3-8.7l17.6-35.1   c0.3,0.8,5.5,11.5,5.6,11.8c-0.3,0.3-11.2,10.2-11.2,10.2l6.7,0.1l13.9-9.1C704.9,50.1,690.3,20.6,690.3,20.8z" />
	<path
   id="Musica_4_"
   class="st1"
   d="M718.2,25L736.1,61l-7.2,6.9l5.1,10c0,0,5.1-2,10.2-8.8l-2-8.7l-13.8-27.6   c0.6,0.2,10.1,1.8,10.3,1.9c0,0.3,1,11.9,1,11.9l3.4-4.2l1-13.1C744.2,29.3,718.2,24.8,718.2,25z" />
	<path
   id="Musica_27_"
   class="st1"
   d="M797.2,21.8l-19.5,44.3L766.2,65l-5.3,12.4c0,0,5.5,3,15.5,2.4l6.5-8.6l14.8-34   c0.3,0.8,5.8,10.6,5.8,10.9c-0.2,0.3-10,10.1-10,10.1l6.3-0.2l12.6-9.2C812.4,48.8,797.2,21.7,797.2,21.8z" />
	<path
   id="Musica_26_"
   class="st1"
   d="M823.3,20.5l24.1,54.4l-10.6,9.5l6.9,15c0,0,7.3-2.5,15-12l-2.4-13l-18.6-41.6   c0.9,0.4,14.4,3.5,14.7,3.7c0.1,0.4,0.9,17.5,0.9,17.5l5-5.9l2.1-19.1C860.3,29,823.2,20.3,823.3,20.5z" />
	<path
   id="Musica_25_"
   class="st1"
   d="M906.4,20.2l-13.6,30.8l-8-0.8l-3.7,8.6c0,0,3.9,2.1,10.8,1.7l4.5-6l10.3-23.6   c0.2,0.5,4,7.4,4.1,7.6c-0.2,0.2-7,7-7,7l4.4-0.1l8.8-6.4C916.9,39,906.4,20.1,906.4,20.2z" />
	<path
   id="Musica_24_"
   class="st1"
   d="M931.5,22.1L949,61.7l-7.7,6.9l5,10.9c0,0,5.3-1.8,10.9-8.8l-1.8-9.4l-13.5-30.2   c0.7,0.3,10.5,2.6,10.7,2.7c0,0.3,0.7,12.7,0.7,12.7l3.6-4.3l1.5-13.9C958.4,28.3,931.4,22,931.5,22.1z" />
	<path
   id="Musica_23_"
   class="st1"
   d="M1015.5,21.1l-26,59.2L974,78.8L967,95.3c0,0,7.4,4,20.7,3.2l8.7-11.5l19.8-45.4   c0.4,1,7.7,14.1,7.8,14.5c-0.3,0.4-13.4,13.5-13.4,13.5l8.4-0.3l16.8-12.3C1035.8,57.1,1015.6,21,1015.5,21.1z" />
	<path
   id="Musica_22_"
   class="st1"
   d="M1046.2,24.4l22.3,46.2l-8.9,8.5l6.3,12.8c0,0,6.3-2.4,12.6-10.8L1076,70l-17.1-35.4   c0.8,0.3,12.5,2.6,12.8,2.8c0.1,0.4,1.2,15,1.2,15l4.2-5.2l1.3-16.5C1078.3,30.7,1046.1,24.2,1046.2,24.4z" />
	<path
   id="Musica_21_"
   class="st1"
   d="M1120.1,21.7L1104.8,59l-9.9-0.8l-4.1,10.4c0,0,4.8,2.5,13.3,1.9l5.3-7.2l11.6-28.6   c0.3,0.6,5.3,8.8,5.4,9c-0.2,0.2-8.3,8.6-8.3,8.6l5.4-0.2l10.5-7.8C1134,44.1,1120.1,21.6,1120.1,21.7z" />
	<path
   id="Musica_20_"
   class="st1"
   d="M1157,21.3l18.6,44.7l-8.8,7.5l5.3,12.4c0,0,6-1.9,12.4-9.5l-1.7-10.6l-14.3-34.2   c0.7,0.3,11.7,3.1,11.9,3.3c0,0.3,0.4,14.2,0.4,14.2l4.2-4.7l2-15.5C1187,28.9,1156.9,21.1,1157,21.3z" />
	<path
   id="Musica_17_"
   class="st1"
   d="M1245.9,19.8l-23.2,54.8l-14.2-1.2l-6.3,15.3c0,0,6.9,3.6,19,2.7l7.8-10.7l17.7-42   c0.4,0.9,7.3,12.9,7.4,13.3c-0.3,0.3-12.1,12.6-12.1,12.6l7.7-0.4l15.3-11.5C1265,52.7,1245.9,19.7,1245.9,19.8z" />
	<path
   id="Musica_16_"
   class="st1"
   d="M1276,23.6l19.7,27.3l-4.8,6.5l5.5,7.5c0,0,3.8-2.2,6.9-8.4l-2.9-6.9l-15.1-20.9   c0.5,0.1,8.4,0.3,8.6,0.3c0.1,0.2,2.5,9.6,2.5,9.6l2.1-3.8l-1.1-10.8C1297.5,24,1276,23.5,1276,23.6z" />
	<path
   id="Musica_15_"
   class="st1"
   d="M1344.4,21.2l-15.7,40.3l-10.3-0.6l-4.2,11.3c0,0,5.1,2.5,13.9,1.6l5.4-7.9l11.9-30.9   c0.3,0.7,5.6,9.2,5.6,9.5c-0.2,0.2-8.5,9.4-8.5,9.4l5.6-0.4l10.9-8.7C1359,44.6,1344.5,21,1344.4,21.2z" />
	<path
   class="st1"
   d="M19.9,21.1L0.5,65.4l-0.5,0v12.5l5.6-7.4l14.8-34c0.3,0.8,5.8,10.6,5.8,10.9c-0.2,0.3-10,10.1-10,10.1l6.3-0.2   L35.1,48C35.1,48,20,20.9,19.9,21.1z"
   id="path2966" />
	<path
   id="Musica_53_"
   class="st1"
   d="M27.6,118.4L14,149.2l-8-0.8L2.3,157c0,0,3.9,2.1,10.8,1.7l4.5-6l10.3-23.6   c0.2,0.5,4,7.4,4.1,7.6c-0.2,0.2-7,7-7,7l4.4-0.1l8.8-6.4C38.1,137.1,27.6,118.3,27.6,118.4z" />
	<path
   id="Musica_52_"
   class="st1"
   d="M52.6,120.2l17.5,39.6l-7.7,6.9l5,10.9c0,0,5.3-1.8,10.9-8.8l-1.8-9.4l-13.5-30.2   c0.7,0.3,10.5,2.6,10.7,2.7c0,0.3,0.7,12.7,0.7,12.7l3.6-4.3l1.5-13.9C79.6,126.4,52.6,120.1,52.6,120.2z" />
	<path
   id="Musica_51_"
   class="st1"
   d="M136.7,119.3l-26,59.2L95.2,177l-7.1,16.5c0,0,7.4,4,20.7,3.2l8.7-11.5l19.8-45.4   c0.4,1,7.7,14.1,7.8,14.5c-0.3,0.4-13.4,13.5-13.4,13.5l8.4-0.3l16.8-12.3C156.9,155.3,136.7,119.1,136.7,119.3z" />
	<path
   id="Musica_50_"
   class="st1"
   d="M167.4,122.5l22.3,46.2l-8.9,8.5l6.3,12.8c0,0,6.3-2.4,12.6-10.8l-2.5-11.1l-17.1-35.4   c0.8,0.3,12.5,2.6,12.8,2.8c0.1,0.4,1.2,15,1.2,15l4.2-5.2l1.3-16.5C199.5,128.9,167.3,122.4,167.4,122.5z" />
	<path
   id="Musica_49_"
   class="st1"
   d="M241.3,119.9L226,157.1l-9.9-0.8l-4.1,10.4c0,0,4.8,2.5,13.3,1.9l5.3-7.2l11.6-28.6   c0.3,0.6,5.3,8.8,5.4,9c-0.2,0.2-8.3,8.6-8.3,8.6l5.4-0.2l10.5-7.8C255.2,142.2,241.3,119.8,241.3,119.9z" />
	<path
   id="Musica_48_"
   class="st1"
   d="M278.2,119.4l18.6,44.7l-8.8,7.5l5.3,12.4c0,0,6-1.9,12.4-9.5l-1.7-10.6l-14.3-34.2   c0.7,0.3,11.7,3.1,11.9,3.3c0,0.3,0.4,14.2,0.4,14.2l4.2-4.7l2-15.5C308.1,127,278.1,119.3,278.2,119.4z" />
	<path
   id="Musica_47_"
   class="st1"
   d="M367,118l-23.2,54.8l-14.2-1.2l-6.3,15.3c0,0,6.9,3.6,19,2.7l7.8-10.7l17.7-42   c0.4,0.9,7.3,12.9,7.4,13.3c-0.3,0.3-12.1,12.6-12.1,12.6l7.7-0.4l15.3-11.5C386.1,150.8,367.1,117.8,367,118z" />
	<path
   id="Musica_46_"
   class="st1"
   d="M397.2,121.8l19.7,27.3l-4.8,6.5l5.5,7.5c0,0,3.8-2.2,6.9-8.4l-2.9-6.9l-15.1-20.9   c0.5,0.1,8.4,0.3,8.6,0.3c0.1,0.2,2.5,9.6,2.5,9.6l2.1-3.8l-1.1-10.8C418.7,122.2,397.1,121.7,397.2,121.8z" />
	<path
   id="Musica_45_"
   class="st1"
   d="M465.6,119.3l-15.7,40.3l-10.3-0.6l-4.2,11.3c0,0,5.1,2.5,13.9,1.6l5.4-7.9l11.9-30.9   c0.3,0.7,5.6,9.2,5.6,9.5c-0.2,0.2-8.5,9.4-8.5,9.4l5.6-0.4l10.9-8.7C480.2,142.8,465.6,119.2,465.6,119.3z" />
	<path
   id="Musica_44_"
   class="st1"
   d="M490,119.5l29.4,57.6l-10.9,11l8.3,15.9c0,0,7.8-3.2,15.6-14l-3.4-14L506.4,132   c1,0.4,15.8,3,16.2,3.1c0.1,0.5,2,18.9,2,18.9l5.1-6.7l1.1-20.8C530.7,126.6,489.9,119.3,490,119.5z" />
	<path
   id="Musica_43_"
   class="st1"
   d="M588.7,119.7l-23.1,45.9l-12.1-1.9l-6.3,12.8c0,0,5.7,3.5,16.2,3.4l7.3-8.7l17.6-35.1   c0.3,0.8,5.5,11.5,5.6,11.8c-0.3,0.3-11.2,10.2-11.2,10.2l6.7,0.1l13.9-9.1C603.3,149,588.8,119.5,588.7,119.7z" />
	<path
   id="Musica_42_"
   class="st1"
   d="M616.6,123.9l17.9,36.1l-7.2,6.9l5.1,10c0,0,5.1-2,10.2-8.8l-2-8.7l-13.8-27.6   c0.6,0.2,10.1,1.8,10.3,1.9c0,0.3,1,11.9,1,11.9l3.4-4.2l1-13.1C642.6,128.2,616.6,123.7,616.6,123.9z" />
	<path
   id="Musica_41_"
   class="st1"
   d="M695.6,120.7L676.1,165l-11.5-1.2l-5.3,12.4c0,0,5.5,3,15.5,2.4l6.5-8.6l14.8-34   c0.3,0.8,5.8,10.6,5.8,10.9c-0.2,0.3-10,10.1-10,10.1l6.3-0.2l12.6-9.2C710.8,147.7,695.7,120.6,695.6,120.7z" />
	<path
   id="Musica_40_"
   class="st1"
   d="M721.7,119.4l24.1,54.4l-10.6,9.5l6.9,15c0,0,7.3-2.5,15-12l-2.4-13l-18.6-41.6   c0.9,0.4,14.4,3.5,14.7,3.7c0.1,0.4,0.9,17.5,0.9,17.5l5-5.9l2.1-19.1C758.7,127.9,721.7,119.2,721.7,119.4z" />
	<path
   id="Musica_39_"
   class="st1"
   d="M804.8,119.1L791.2,150l-8-0.8l-3.7,8.6c0,0,3.9,2.1,10.8,1.7l4.5-6l10.3-23.6   c0.2,0.5,4,7.4,4.1,7.6c-0.2,0.2-7,7-7,7l4.4-0.1l8.8-6.4C815.4,137.9,804.8,119,804.8,119.1z" />
	<path
   id="Musica_38_"
   class="st1"
   d="M829.9,121l17.5,39.6l-7.7,6.9l5,10.9c0,0,5.3-1.8,10.9-8.8l-1.8-9.4L840.3,130   c0.7,0.3,10.5,2.6,10.7,2.7c0,0.3,0.7,12.7,0.7,12.7l3.6-4.3l1.5-13.9C856.8,127.2,829.8,120.9,829.9,121z" />
	<path
   id="Musica_37_"
   class="st1"
   d="M913.9,120l-26,59.2l-15.4-1.5l-7.1,16.5c0,0,7.4,4,20.7,3.2l8.7-11.5l19.8-45.4   c0.4,1,7.7,14.1,7.8,14.5c-0.3,0.4-13.4,13.5-13.4,13.5l8.4-0.3l16.8-12.3C934.2,156,914,119.9,913.9,120z" />
	<path
   id="Musica_36_"
   class="st1"
   d="M944.6,123.3l22.3,46.2L958,178l6.3,12.8c0,0,6.3-2.4,12.6-10.8l-2.5-11.1l-17.1-35.4   c0.8,0.3,12.5,2.6,12.8,2.8c0.1,0.4,1.2,15,1.2,15l4.2-5.2l1.3-16.5C976.8,129.6,944.5,123.1,944.6,123.3z" />
	<path
   id="Musica_35_"
   class="st1"
   d="M1018.5,120.6l-15.3,37.3l-9.9-0.8l-4.1,10.4c0,0,4.8,2.5,13.3,1.9l5.3-7.2l11.6-28.6   c0.3,0.6,5.3,8.8,5.4,9c-0.2,0.2-8.3,8.6-8.3,8.6l5.4-0.2l10.5-7.8C1032.4,143,1018.5,120.5,1018.5,120.6z" />
	<path
   id="Musica_34_"
   class="st1"
   d="M1055.4,120.2l18.6,44.7l-8.8,7.5l5.3,12.4c0,0,6-1.9,12.4-9.5l-1.7-10.6l-14.3-34.2   c0.7,0.3,11.7,3.1,11.9,3.3c0,0.3,0.4,14.2,0.4,14.2l4.2-4.7l2-15.5C1085.4,127.8,1055.4,120,1055.4,120.2z" />
	<path
   id="Musica_33_"
   class="st1"
   d="M1144.3,118.7l-23.2,54.8l-14.2-1.2l-6.3,15.3c0,0,6.9,3.6,19,2.7l7.8-10.7l17.7-42   c0.4,0.9,7.3,12.9,7.4,13.3c-0.3,0.3-12.1,12.6-12.1,12.6l7.7-0.4l15.3-11.5C1163.4,151.6,1144.4,118.6,1144.3,118.7z" />
	<path
   id="Musica_32_"
   class="st1"
   d="M1174.4,122.5l19.7,27.3l-4.8,6.5l5.5,7.5c0,0,3.8-2.2,6.9-8.4l-2.9-6.9l-15.1-20.9   c0.5,0.1,8.4,0.3,8.6,0.3c0.1,0.2,2.5,9.6,2.5,9.6l2.1-3.8l-1.1-10.8C1195.9,122.9,1174.4,122.4,1174.4,122.5z" />
	<path
   id="Musica_31_"
   class="st1"
   d="M1242.8,120.1l-15.7,40.3l-10.3-0.6l-4.2,11.3c0,0,5.1,2.5,13.9,1.6l5.4-7.9l11.9-30.9   c0.3,0.7,5.6,9.2,5.6,9.5c-0.2,0.2-8.5,9.4-8.5,9.4l5.6-0.4l10.9-8.7C1257.4,143.5,1242.9,119.9,1242.8,120.1z" />
	<path
   id="Musica_30_"
   class="st1"
   d="M1267.3,120.3l29.4,57.6l-10.9,11l8.3,15.9c0,0,7.8-3.2,15.6-14l-3.4-14l-22.6-44.1   c1,0.4,15.8,3,16.2,3.1c0.1,0.5,2,18.9,2,18.9l5.1-6.7l1.1-20.8C1308,127.3,1267.2,120.1,1267.3,120.3z" />
	<path
   class="st1"
   d="M1342.9,166.3l-12.1-1.9l-6.3,12.8c0,0,5.7,3.5,16.2,3.4l7.3-8.7l17.6-35.1c0,0.1,0.2,0.4,0.3,0.8v-17.1   L1342.9,166.3z"
   id="path2992" />
	<path
   class="st1"
   d="M1360,158.7l5.9,0.1v-5.5C1363,156,1360,158.7,1360,158.7z"
   id="path2994" />
	<path
   id="Musica_96_"
   class="st1"
   d="M49.2,216.9l24.1,54.4l-10.6,9.5l6.9,15c0,0,7.3-2.5,15-12l-2.4-13l-18.6-41.6   c0.9,0.4,14.4,3.5,14.7,3.7c0.1,0.4,0.9,17.5,0.9,17.5l5-5.9l2.1-19.1C86.3,225.4,49.2,216.7,49.2,216.9z" />
	<path
   id="Musica_95_"
   class="st1"
   d="M132.3,216.6l-13.6,30.8l-8-0.8l-3.7,8.6c0,0,3.9,2.1,10.8,1.7l4.5-6l10.3-23.6   c0.2,0.5,4,7.4,4.1,7.6c-0.2,0.2-7,7-7,7l4.4-0.1l8.8-6.4C142.9,235.3,132.4,216.5,132.3,216.6z" />
	<path
   id="Musica_94_"
   class="st1"
   d="M157.4,218.5l17.5,39.6l-7.7,6.9l5,10.9c0,0,5.3-1.8,10.9-8.8l-1.8-9.4l-13.5-30.2   c0.7,0.3,10.5,2.6,10.7,2.7c0,0.3,0.7,12.7,0.7,12.7l3.6-4.3l1.5-13.9C184.3,224.6,157.3,218.3,157.4,218.5z" />
	<path
   id="Musica_93_"
   class="st1"
   d="M241.4,217.5l-26,59.2l-15.4-1.5l-7.1,16.5c0,0,7.4,4,20.7,3.2l8.7-11.5l19.8-45.4   c0.4,1,7.7,14.1,7.8,14.5c-0.3,0.4-13.4,13.5-13.4,13.5l8.4-0.3l16.8-12.3C261.7,253.5,241.5,217.3,241.4,217.5z" />
	<path
   id="Musica_92_"
   class="st1"
   d="M272.1,220.7l22.3,46.2l-8.9,8.5l6.3,12.8c0,0,6.3-2.4,12.6-10.8l-2.5-11.1L284.8,231   c0.8,0.3,12.5,2.6,12.8,2.8c0.1,0.4,1.2,15,1.2,15l4.2-5.2l1.3-16.5C304.3,227.1,272,220.6,272.1,220.7z" />
	<path
   id="Musica_91_"
   class="st1"
   d="M346,218.1l-15.3,37.3l-9.9-0.8l-4.1,10.4c0,0,4.8,2.5,13.3,1.9l5.3-7.2l11.6-28.6   c0.3,0.6,5.3,8.8,5.4,9c-0.2,0.2-8.3,8.6-8.3,8.6l5.4-0.2l10.5-7.8C359.9,240.5,346.1,218,346,218.1z" />
	<path
   id="Musica_90_"
   class="st1"
   d="M382.9,217.6l18.6,44.7l-8.8,7.5l5.3,12.4c0,0,6-1.9,12.4-9.5l-1.7-10.6l-14.3-34.2   c0.7,0.3,11.7,3.1,11.9,3.3c0,0.3,0.4,14.2,0.4,14.2l4.2-4.7l2-15.5C412.9,225.2,382.9,217.5,382.9,217.6z" />
	<path
   id="Musica_89_"
   class="st1"
   d="M471.8,216.2L448.6,271l-14.2-1.2l-6.3,15.3c0,0,6.9,3.6,19,2.7l7.8-10.7l17.7-42   c0.4,0.9,7.3,12.9,7.4,13.3c-0.3,0.3-12.1,12.6-12.1,12.6l7.7-0.4l15.3-11.5C490.9,249,471.9,216,471.8,216.2z" />
	<path
   id="Musica_88_"
   class="st1"
   d="M502,220l19.7,27.3l-4.8,6.5l5.5,7.5c0,0,3.8-2.2,6.9-8.4l-2.9-6.9l-15.1-20.9   c0.5,0.1,8.4,0.3,8.6,0.3c0.1,0.2,2.5,9.6,2.5,9.6l2.1-3.8l-1.1-10.8C523.5,220.4,501.9,219.9,502,220z" />
	<path
   id="Musica_87_"
   class="st1"
   d="M570.4,217.5l-15.7,40.3l-10.3-0.6l-4.2,11.3c0,0,5.1,2.5,13.9,1.6l5.4-7.9l11.9-30.9   c0.3,0.7,5.6,9.2,5.6,9.5c-0.2,0.2-8.5,9.4-8.5,9.4l5.6-0.4L585,241C585,241,570.4,217.4,570.4,217.5z" />
	<path
   id="Musica_86_"
   class="st1"
   d="M594.8,217.7l29.4,57.6l-10.9,11l8.3,15.9c0,0,7.8-3.2,15.6-14l-3.4-14l-22.6-44.1   c1,0.4,15.8,3,16.2,3.1c0.1,0.5,2,18.9,2,18.9l5.1-6.7l1.1-20.8C635.5,224.8,594.7,217.5,594.8,217.7z" />
	<path
   id="Musica_85_"
   class="st1"
   d="M693.4,217.9l-23.1,45.9l-12.1-1.9l-6.3,12.8c0,0,5.7,3.5,16.2,3.4l7.3-8.7l17.6-35.1   c0.3,0.8,5.5,11.5,5.6,11.8c-0.3,0.3-11.2,10.2-11.2,10.2l6.7,0.1l13.9-9.1C708,247.2,693.5,217.7,693.4,217.9z" />
	<path
   id="Musica_84_"
   class="st1"
   d="M721.4,222.1l17.9,36.1l-7.2,6.9l5.1,10c0,0,5.1-2,10.2-8.8l-2-8.7l-13.8-27.6   c0.6,0.2,10.1,1.8,10.3,1.9c0,0.3,1,11.9,1,11.9l3.4-4.2l1-13.1C747.4,226.4,721.3,222,721.4,222.1z" />
	<path
   id="Musica_83_"
   class="st1"
   d="M800.4,218.9l-19.5,44.3l-11.5-1.2l-5.3,12.4c0,0,5.5,3,15.5,2.4l6.5-8.6l14.8-34   c0.3,0.8,5.8,10.6,5.8,10.9c-0.2,0.3-10,10.1-10,10.1l6.3-0.2l12.6-9.2C815.5,245.9,800.4,218.8,800.4,218.9z" />
	<path
   id="Musica_82_"
   class="st1"
   d="M826.5,217.6l24.1,54.4l-10.6,9.5l6.9,15c0,0,7.3-2.5,15-12l-2.4-13l-18.6-41.6   c0.9,0.4,14.4,3.5,14.7,3.7c0.1,0.4,0.9,17.5,0.9,17.5l5-5.9l2.1-19.1C863.5,226.1,826.4,217.5,826.5,217.6z" />
	<path
   id="Musica_81_"
   class="st1"
   d="M909.6,217.4L896,248.2l-8-0.8l-3.7,8.6c0,0,3.9,2.1,10.8,1.7l4.5-6l10.3-23.6   c0.2,0.5,4,7.4,4.1,7.6c-0.2,0.2-7,7-7,7l4.4-0.1l8.8-6.4C920.1,236.1,909.6,217.3,909.6,217.4z" />
	<path
   id="Musica_80_"
   class="st1"
   d="M934.6,219.2l17.5,39.6l-7.7,6.9l5,10.9c0,0,5.3-1.8,10.9-8.8l-1.8-9.4l-13.5-30.2   c0.7,0.3,10.5,2.6,10.7,2.7c0,0.3,0.7,12.7,0.7,12.7l3.6-4.3l1.5-13.9C961.6,225.4,934.6,219.1,934.6,219.2z" />
	<path
   id="Musica_79_"
   class="st1"
   d="M1018.7,218.3l-26,59.2l-15.4-1.5l-7.1,16.5c0,0,7.4,4,20.7,3.2l8.7-11.5l19.8-45.4   c0.4,1,7.7,14.1,7.8,14.5c-0.3,0.4-13.4,13.5-13.4,13.5l8.4-0.3l16.8-12.3C1038.9,254.2,1018.7,218.1,1018.7,218.3z" />
	<path
   id="Musica_78_"
   class="st1"
   d="M1049.4,221.5l22.3,46.2l-8.9,8.5l6.3,12.8c0,0,6.3-2.4,12.6-10.8l-2.5-11.1l-17.1-35.4   c0.8,0.3,12.5,2.6,12.8,2.8c0.1,0.4,1.2,15,1.2,15l4.2-5.2l1.3-16.5C1081.5,227.8,1049.3,221.4,1049.4,221.5z" />
	<path
   id="Musica_77_"
   class="st1"
   d="M1123.3,218.9l-15.3,37.3l-9.9-0.8l-4.1,10.4c0,0,4.8,2.5,13.3,1.9l5.3-7.2l11.6-28.6   c0.3,0.6,5.3,8.8,5.4,9c-0.2,0.2-8.3,8.6-8.3,8.6l5.4-0.2l10.5-7.8C1137.1,241.2,1123.3,218.7,1123.3,218.9z" />
	<path
   id="Musica_76_"
   class="st1"
   d="M1160.2,218.4l18.6,44.7l-8.8,7.5l5.3,12.4c0,0,6-1.9,12.4-9.5l-1.7-10.6l-14.3-34.2   c0.7,0.3,11.7,3.1,11.9,3.3c0,0.3,0.4,14.2,0.4,14.2l4.2-4.7l2-15.5C1190.1,226,1160.1,218.2,1160.2,218.4z" />
	<path
   id="Musica_75_"
   class="st1"
   d="M1249,217l-23.2,54.8l-14.2-1.2l-6.3,15.3c0,0,6.9,3.6,19,2.7l7.8-10.7l17.7-42   c0.4,0.9,7.3,12.9,7.4,13.3c-0.3,0.3-12.1,12.6-12.1,12.6l7.7-0.4l15.3-11.5C1268.1,249.8,1249.1,216.8,1249,217z" />
	<path
   id="Musica_74_"
   class="st1"
   d="M1279.2,220.7l19.7,27.3l-4.8,6.5l5.5,7.5c0,0,3.8-2.2,6.9-8.4l-2.9-6.9l-15.1-20.9   c0.5,0.1,8.4,0.3,8.6,0.3c0.1,0.2,2.5,9.6,2.5,9.6l2.1-3.8l-1.1-10.8C1300.7,221.1,1279.1,220.6,1279.2,220.7z" />
	<path
   id="Musica_73_"
   class="st1"
   d="M1347.6,218.3l-15.7,40.3l-10.3-0.6l-4.2,11.3c0,0,5.1,2.5,13.9,1.6l5.4-7.9l11.9-30.9   c0.3,0.7,5.6,9.2,5.6,9.5c-0.2,0.2-8.5,9.4-8.5,9.4l5.6-0.4l10.9-8.7C1362.2,241.7,1347.6,218.1,1347.6,218.3z" />
	<path
   class="st1"
   d="M23.1,218.2L3.6,262.5l-0.5,0V275l5.6-7.4l14.8-34c0.3,0.8,5.8,10.6,5.8,10.9c-0.2,0.3-10,10.1-10,10.1   l6.3-0.2l12.6-9.2C38.3,245.1,23.2,218.1,23.1,218.2z"
   id="path3020" />
	<path
   id="Musica_72_"
   class="st1"
   d="M26.7,315.5l-13.6,30.8l-8-0.8l-3.7,8.6c0,0,3.9,2.1,10.8,1.7l4.5-6l10.3-23.6   c0.2,0.5,4,7.4,4.1,7.6c-0.2,0.2-7,7-7,7l4.4-0.1l8.8-6.4C37.3,334.2,26.8,315.4,26.7,315.5z" />
	<path
   id="Musica_71_"
   class="st1"
   d="M51.8,317.4l17.5,39.6l-7.7,6.9l5,10.9c0,0,5.3-1.8,10.9-8.8l-1.8-9.4l-13.5-30.2   c0.7,0.3,10.5,2.6,10.7,2.7c0,0.3,0.7,12.7,0.7,12.7l3.6-4.3l1.5-13.9C78.7,323.6,51.8,317.2,51.8,317.4z" />
	<path
   id="Musica_70_"
   class="st1"
   d="M135.8,316.4l-26,59.2l-15.4-1.5l-7.1,16.5c0,0,7.4,4,20.7,3.2l8.7-11.5l19.8-45.4   c0.4,1,7.7,14.1,7.8,14.5c-0.3,0.4-13.4,13.5-13.4,13.5l8.4-0.3l16.8-12.3C156.1,352.4,135.9,316.2,135.8,316.4z" />
	<path
   id="Musica_69_"
   class="st1"
   d="M166.5,319.6l22.3,46.2l-8.9,8.5l6.3,12.8c0,0,6.3-2.4,12.6-10.8l-2.5-11.1l-17.1-35.4   c0.8,0.3,12.5,2.6,12.8,2.8c0.1,0.4,1.2,15,1.2,15l4.2-5.2l1.3-16.5C198.7,326,166.5,319.5,166.5,319.6z" />
	<path
   id="Musica_68_"
   class="st1"
   d="M240.4,317l-15.3,37.3l-9.9-0.8l-4.1,10.4c0,0,4.8,2.5,13.3,1.9l5.3-7.2l11.6-28.6   c0.3,0.6,5.3,8.8,5.4,9c-0.2,0.2-8.3,8.6-8.3,8.6l5.4-0.2l10.5-7.8C254.3,339.4,240.5,316.9,240.4,317z" />
	<path
   id="Musica_67_"
   class="st1"
   d="M277.4,316.5l18.6,44.7l-8.8,7.5l5.3,12.4c0,0,6-1.9,12.4-9.5l-1.7-10.6l-14.3-34.2   c0.7,0.3,11.7,3.1,11.9,3.3c0,0.3,0.4,14.2,0.4,14.2l4.2-4.7l2-15.5C307.3,324.1,277.3,316.4,277.4,316.5z" />
	<path
   id="Musica_66_"
   class="st1"
   d="M366.2,315.1L343,369.9l-14.2-1.2l-6.3,15.3c0,0,6.9,3.6,19,2.7l7.8-10.7l17.7-42   c0.4,0.9,7.3,12.9,7.4,13.3c-0.3,0.3-12.1,12.6-12.1,12.6l7.7-0.4l15.3-11.5C385.3,347.9,366.3,314.9,366.2,315.1z" />
	<path
   id="Musica_65_"
   class="st1"
   d="M396.4,318.9l19.7,27.3l-4.8,6.5l5.5,7.5c0,0,3.8-2.2,6.9-8.4l-2.9-6.9L405.8,324   c0.5,0.1,8.4,0.3,8.6,0.3c0.1,0.2,2.5,9.6,2.5,9.6l2.1-3.8l-1.1-10.8C417.9,319.3,396.3,318.8,396.4,318.9z" />
	<path
   id="Musica_64_"
   class="st1"
   d="M464.8,316.4l-15.7,40.3l-10.3-0.6l-4.2,11.3c0,0,5.1,2.5,13.9,1.6l5.4-7.9l11.9-30.9   c0.3,0.7,5.6,9.2,5.6,9.5c-0.2,0.2-8.5,9.4-8.5,9.4l5.6-0.4l10.9-8.7C479.4,339.9,464.8,316.3,464.8,316.4z" />
	<path
   id="Musica_63_"
   class="st1"
   d="M489.2,316.6l29.4,57.6l-10.9,11l8.3,15.9c0,0,7.8-3.2,15.6-14l-3.4-14l-22.6-44.1   c1,0.4,15.8,3,16.2,3.1c0.1,0.5,2,18.9,2,18.9l5.1-6.7l1.1-20.8C529.9,323.7,489.1,316.4,489.2,316.6z" />
	<path
   id="Musica_62_"
   class="st1"
   d="M587.9,316.8l-23.1,45.9l-12.1-1.9l-6.3,12.8c0,0,5.7,3.5,16.2,3.4l7.3-8.7l17.6-35.1   c0.3,0.8,5.5,11.5,5.6,11.8c-0.3,0.3-11.2,10.2-11.2,10.2l6.7,0.1l13.9-9.1C602.5,346.1,587.9,316.6,587.9,316.8z" />
	<path
   id="Musica_61_"
   class="st1"
   d="M615.8,321l17.9,36.1l-7.2,6.9l5.1,10c0,0,5.1-2,10.2-8.8l-2-8.7l-13.8-27.6   c0.6,0.2,10.1,1.8,10.3,1.9c0,0.3,1,11.9,1,11.9l3.4-4.2l1-13.1C641.8,325.3,615.8,320.9,615.8,321z" />
	<path
   id="Musica_60_"
   class="st1"
   d="M694.8,317.8l-19.5,44.3l-11.5-1.2l-5.3,12.4c0,0,5.5,3,15.5,2.4l6.5-8.6l14.8-34   c0.3,0.8,5.8,10.6,5.8,10.9c-0.2,0.3-10,10.1-10,10.1l6.3-0.2l12.6-9.2C710,344.8,694.8,317.7,694.8,317.8z" />
	<path
   id="Musica_59_"
   class="st1"
   d="M720.9,316.5l24.1,54.4l-10.6,9.5l6.9,15c0,0,7.3-2.5,15-12l-2.4-13l-18.6-41.6   c0.9,0.4,14.4,3.5,14.7,3.7c0.1,0.4,0.9,17.5,0.9,17.5l5-5.9l2.1-19.1C757.9,325,720.8,316.4,720.9,316.5z" />
	<path
   id="Musica_58_"
   class="st1"
   d="M804,316.3l-13.6,30.8l-8-0.8l-3.7,8.6c0,0,3.9,2.1,10.8,1.7l4.5-6l10.3-23.6   c0.2,0.5,4,7.4,4.1,7.6c-0.2,0.2-7,7-7,7l4.4-0.1l8.8-6.4C814.5,335,804,316.2,804,316.3z" />
	<path
   id="Musica_57_"
   class="st1"
   d="M829.1,318.1l17.5,39.6l-7.7,6.9l5,10.9c0,0,5.3-1.8,10.9-8.8l-1.8-9.4l-13.5-30.2   c0.7,0.3,10.5,2.6,10.7,2.7c0,0.3,0.7,12.7,0.7,12.7l3.6-4.3l1.5-13.9C856,324.3,829,318,829.1,318.1z" />
	<path
   id="Musica_56_"
   class="st1"
   d="M913.1,317.2l-26,59.2l-15.4-1.5l-7.1,16.5c0,0,7.4,4,20.7,3.2l8.7-11.5l19.8-45.4   c0.4,1,7.7,14.1,7.8,14.5c-0.3,0.4-13.4,13.5-13.4,13.5l8.4-0.3l16.8-12.3C933.4,353.1,913.2,317,913.1,317.2z" />
	<path
   id="Musica_55_"
   class="st1"
   d="M943.8,320.4l22.3,46.2l-8.9,8.5l6.3,12.8c0,0,6.3-2.4,12.6-10.8l-2.5-11.1l-17.1-35.4   c0.8,0.3,12.5,2.6,12.8,2.8c0.1,0.4,1.2,15,1.2,15l4.2-5.2l1.3-16.5C975.9,326.7,943.7,320.3,943.8,320.4z" />
	<path
   id="Musica_54_"
   class="st1"
   d="M1017.7,317.8l-15.3,37.3l-9.9-0.8l-4.1,10.4c0,0,4.8,2.5,13.3,1.9l5.3-7.2l11.6-28.6   c0.3,0.6,5.3,8.8,5.4,9c-0.2,0.2-8.3,8.6-8.3,8.6l5.4-0.2l10.5-7.8C1031.6,340.1,1017.7,317.6,1017.7,317.8z" />
	<path
   id="Musica_29_"
   class="st1"
   d="M1054.6,317.3l18.6,44.7l-8.8,7.5l5.3,12.4c0,0,6-1.9,12.4-9.5l-1.7-10.6l-14.3-34.2   c0.7,0.3,11.7,3.1,11.9,3.3c0,0.3,0.4,14.2,0.4,14.2l4.2-4.7l2-15.5C1084.5,324.9,1054.5,317.1,1054.6,317.3z" />
	<path
   id="Musica_28_"
   class="st1"
   d="M1143.5,315.9l-23.2,54.8l-14.2-1.2l-6.3,15.3c0,0,6.9,3.6,19,2.7l7.8-10.7l17.7-42   c0.4,0.9,7.3,12.9,7.4,13.3c-0.3,0.3-12.1,12.6-12.1,12.6l7.7-0.4l15.3-11.5C1162.6,348.7,1143.5,315.7,1143.5,315.9z" />
	<path
   id="Musica_14_"
   class="st1"
   d="M1173.6,319.6l19.7,27.3l-4.8,6.5l5.5,7.5c0,0,3.8-2.2,6.9-8.4l-2.9-6.9l-15.1-20.9   c0.5,0.1,8.4,0.3,8.6,0.3c0.1,0.2,2.5,9.6,2.5,9.6l2.1-3.8l-1.1-10.8C1195.1,320,1173.6,319.5,1173.6,319.6z" />
	<path
   id="Musica_13_"
   class="st1"
   d="M1242,317.2l-15.7,40.3l-10.3-0.6l-4.2,11.3c0,0,5.1,2.5,13.9,1.6l5.4-7.9l11.9-30.9   c0.3,0.7,5.6,9.2,5.6,9.5c-0.2,0.2-8.5,9.4-8.5,9.4l5.6-0.4l10.9-8.7C1256.6,340.6,1242.1,317.1,1242,317.2z" />
	<path
   id="Musica_12_"
   class="st1"
   d="M1266.5,317.4l29.4,57.6l-10.9,11l8.3,15.9c0,0,7.8-3.2,15.6-14l-3.4-14l-22.6-44.1   c1,0.4,15.8,3,16.2,3.1c0.1,0.5,2,18.9,2,18.9l5.1-6.7l1.1-20.8C1307.2,324.4,1266.4,317.2,1266.5,317.4z" />
	<path
   class="st1"
   d="M1342,363.4l-12.1-1.9l-6.3,12.8c0,0,5.7,3.5,16.2,3.4l7.3-8.7l17.6-35.1c0,0.1,0.2,0.4,0.3,0.8v-17.1   L1342,363.4z"
   id="path3046" />
	<path
   class="st1"
   d="M1359.2,355.8l5.9,0.1v-5.5C1362.2,353.1,1359.2,355.8,1359.2,355.8z"
   id="path3048" />
	<path
   id="Musica_192_"
   class="st1"
   d="M46.9,413.5L71,467.9l-10.6,9.5l6.9,15c0,0,7.3-2.5,15-12l-2.4-13l-18.6-41.6   c0.9,0.4,14.4,3.5,14.7,3.7C76,430,76.9,447,76.9,447l5-5.9l2.1-19.1C83.9,422,46.8,413.4,46.9,413.5z" />
	<path
   id="Musica_191_"
   class="st1"
   d="M130,413.3l-13.6,30.8l-8-0.8l-3.7,8.6c0,0,3.9,2.1,10.8,1.7l4.5-6l10.3-23.6   c0.2,0.5,4,7.4,4.1,7.6c-0.2,0.2-7,7-7,7l4.4-0.1l8.8-6.4C140.5,432,130,413.2,130,413.3z" />
	<path
   id="Musica_190_"
   class="st1"
   d="M155.1,415.1l17.5,39.6l-7.7,6.9l5,10.9c0,0,5.3-1.8,10.9-8.8l-1.8-9.4l-13.5-30.2   c0.7,0.3,10.5,2.6,10.7,2.7c0,0.3,0.7,12.7,0.7,12.7l3.6-4.3l1.5-13.9C182,421.3,155,415,155.1,415.1z" />
	<path
   id="Musica_189_"
   class="st1"
   d="M239.1,414.1l-26,59.2l-15.4-1.5l-7.1,16.5c0,0,7.4,4,20.7,3.2l8.7-11.5l19.8-45.4   c0.4,1,7.7,14.1,7.8,14.5c-0.3,0.4-13.4,13.5-13.4,13.5l8.4-0.3l16.8-12.3C259.4,450.1,239.2,414,239.1,414.1z" />
	<path
   id="Musica_188_"
   class="st1"
   d="M269.8,417.4l22.3,46.2l-8.9,8.5l6.3,12.8c0,0,6.3-2.4,12.6-10.8l-2.5-11.1l-17.1-35.4   c0.8,0.3,12.5,2.6,12.8,2.8c0.1,0.4,1.2,15,1.2,15l4.2-5.2l1.3-16.5C301.9,423.7,269.7,417.3,269.8,417.4z" />
	<path
   id="Musica_187_"
   class="st1"
   d="M343.7,414.8L328.4,452l-9.9-0.8l-4.1,10.4c0,0,4.8,2.5,13.3,1.9l5.3-7.2l11.6-28.6   c0.3,0.6,5.3,8.8,5.4,9c-0.2,0.2-8.3,8.6-8.3,8.6l5.4-0.2l10.5-7.8C357.6,437.1,343.7,414.6,343.7,414.8z" />
	<path
   id="Musica_186_"
   class="st1"
   d="M380.6,414.3l18.6,44.7l-8.8,7.5l5.3,12.4c0,0,6-1.9,12.4-9.5l-1.7-10.6L392,424.6   c0.7,0.3,11.7,3.1,11.9,3.3c0,0.3,0.4,14.2,0.4,14.2l4.2-4.7l2-15.5C410.5,421.9,380.5,414.1,380.6,414.3z" />
	<path
   id="Musica_185_"
   class="st1"
   d="M469.5,412.8l-23.2,54.8l-14.2-1.2l-6.3,15.3c0,0,6.9,3.6,19,2.7l7.8-10.7l17.7-42   c0.4,0.9,7.3,12.9,7.4,13.3c-0.3,0.3-12.1,12.6-12.1,12.6l7.7-0.4l15.3-11.5C488.6,445.7,469.5,412.7,469.5,412.8z" />
	<path
   id="Musica_184_"
   class="st1"
   d="M499.6,416.6l19.7,27.3l-4.8,6.5l5.5,7.5c0,0,3.8-2.2,6.9-8.4l-2.9-6.9L509,421.8   c0.5,0.1,8.4,0.3,8.6,0.3c0.1,0.2,2.5,9.6,2.5,9.6l2.1-3.8l-1.1-10.8C521.1,417,499.6,416.5,499.6,416.6z" />
	<path
   id="Musica_183_"
   class="st1"
   d="M568,414.2l-15.7,40.3l-10.3-0.6l-4.2,11.3c0,0,5.1,2.5,13.9,1.6l5.4-7.9l11.9-30.9   c0.3,0.7,5.6,9.2,5.6,9.5c-0.2,0.2-8.5,9.4-8.5,9.4l5.6-0.4l10.9-8.7C582.6,437.6,568.1,414,568,414.2z" />
	<path
   id="Musica_182_"
   class="st1"
   d="M592.5,414.4l29.4,57.6l-10.9,11l8.3,15.9c0,0,7.8-3.2,15.6-14l-3.4-14l-22.6-44.1   c1,0.4,15.8,3,16.2,3.1c0.1,0.5,2,18.9,2,18.9l5.1-6.7l1.1-20.8C633.2,421.4,592.4,414.2,592.5,414.4z" />
	<path
   id="Musica_181_"
   class="st1"
   d="M691.1,414.5L668,460.4l-12.1-1.9l-6.3,12.8c0,0,5.7,3.5,16.2,3.4l7.3-8.7l17.6-35.1   c0.3,0.8,5.5,11.5,5.6,11.8c-0.3,0.3-11.2,10.2-11.2,10.2l6.7,0.1l13.9-9.1C705.7,443.9,691.2,414.4,691.1,414.5z" />
	<path
   id="Musica_180_"
   class="st1"
   d="M719.1,418.7l17.9,36.1l-7.2,6.9l5.1,10c0,0,5.1-2,10.2-8.8l-2-8.7l-13.8-27.6   c0.6,0.2,10.1,1.8,10.3,1.9c0,0.3,1,11.9,1,11.9l3.4-4.2l1-13.1C745,423.1,719,418.6,719.1,418.7z" />
	<path
   id="Musica_179_"
   class="st1"
   d="M798,415.6l-19.5,44.3l-11.5-1.2l-5.3,12.4c0,0,5.5,3,15.5,2.4l6.5-8.6l14.8-34   c0.3,0.8,5.8,10.6,5.8,10.9c-0.2,0.3-10,10.1-10,10.1l6.3-0.2l12.6-9.2C813.2,442.5,798.1,415.5,798,415.6z" />
	<path
   id="Musica_178_"
   class="st1"
   d="M824.1,414.3l24.1,54.4l-10.6,9.5l6.9,15c0,0,7.3-2.5,15-12l-2.4-13l-18.6-41.6   c0.9,0.4,14.4,3.5,14.7,3.7c0.1,0.4,0.9,17.5,0.9,17.5l5-5.9l2.1-19.1C861.2,422.8,824.1,414.1,824.1,414.3z" />
	<path
   id="Musica_177_"
   class="st1"
   d="M907.2,414l-13.6,30.8l-8-0.8l-3.7,8.6c0,0,3.9,2.1,10.8,1.7l4.5-6l10.3-23.6   c0.2,0.5,4,7.4,4.1,7.6c-0.2,0.2-7,7-7,7l4.4-0.1l8.8-6.4C917.8,432.7,907.3,413.9,907.2,414z" />
	<path
   id="Musica_176_"
   class="st1"
   d="M932.3,415.9l17.5,39.6l-7.7,6.9l5,10.9c0,0,5.3-1.8,10.9-8.8l-1.8-9.4l-13.5-30.2   c0.7,0.3,10.5,2.6,10.7,2.7c0,0.3,0.7,12.7,0.7,12.7l3.6-4.3l1.5-13.9C959.2,422.1,932.2,415.7,932.3,415.9z" />
	<path
   id="Musica_175_"
   class="st1"
   d="M1016.3,414.9l-26,59.2l-15.4-1.5l-7.1,16.5c0,0,7.4,4,20.7,3.2l8.7-11.5l19.8-45.4   c0.4,1,7.7,14.1,7.8,14.5c-0.3,0.4-13.4,13.5-13.4,13.5l8.4-0.3l16.8-12.3C1036.6,450.9,1016.4,414.7,1016.3,414.9z" />
	<path
   id="Musica_174_"
   class="st1"
   d="M1047,418.1l22.3,46.2l-8.9,8.5l6.3,12.8c0,0,6.3-2.4,12.6-10.8l-2.5-11.1l-17.1-35.4   c0.8,0.3,12.5,2.6,12.8,2.8c0.1,0.4,1.2,15,1.2,15l4.2-5.2l1.3-16.5C1079.2,424.5,1046.9,418,1047,418.1z" />
	<path
   id="Musica_173_"
   class="st1"
   d="M1120.9,415.5l-15.3,37.3l-9.9-0.8l-4.1,10.4c0,0,4.8,2.5,13.3,1.9l5.3-7.2l11.6-28.6   c0.3,0.6,5.3,8.8,5.4,9c-0.2,0.2-8.3,8.6-8.3,8.6l5.4-0.2l10.5-7.8C1134.8,437.9,1121,415.4,1120.9,415.5z" />
	<path
   id="Musica_172_"
   class="st1"
   d="M1157.8,415l18.6,44.7l-8.8,7.5l5.3,12.4c0,0,6-1.9,12.4-9.5l-1.7-10.6l-14.3-34.2   c0.7,0.3,11.7,3.1,11.9,3.3c0,0.3,0.4,14.2,0.4,14.2l4.2-4.7l2-15.5C1187.8,422.6,1157.8,414.9,1157.8,415z" />
	<path
   id="Musica_171_"
   class="st1"
   d="M1246.7,413.6l-23.2,54.8l-14.2-1.2l-6.3,15.3c0,0,6.9,3.6,19,2.7l7.8-10.7l17.7-42   c0.4,0.9,7.3,12.9,7.4,13.3c-0.3,0.3-12.1,12.6-12.1,12.6l7.7-0.4l15.3-11.5C1265.8,446.4,1246.8,413.4,1246.7,413.6z" />
	<path
   id="Musica_170_"
   class="st1"
   d="M1276.9,417.4l19.7,27.3l-4.8,6.5l5.5,7.5c0,0,3.8-2.2,6.9-8.4l-2.9-6.9l-15.1-20.9   c0.5,0.1,8.4,0.3,8.6,0.3c0.1,0.2,2.5,9.6,2.5,9.6l2.1-3.8l-1.1-10.8C1298.4,417.8,1276.8,417.3,1276.9,417.4z" />
	<path
   id="Musica_169_"
   class="st1"
   d="M1345.3,414.9l-15.7,40.3l-10.3-0.6l-4.2,11.3c0,0,5.1,2.5,13.9,1.6l5.4-7.9l11.9-30.9   c0.3,0.7,5.6,9.2,5.6,9.5c-0.2,0.2-8.5,9.4-8.5,9.4l5.6-0.4l10.9-8.7C1359.9,438.4,1345.3,414.8,1345.3,414.9z" />
	<path
   class="st1"
   d="M20.8,414.8L1.3,459.1l-0.5,0v12.5l5.6-7.4l14.8-34c0.3,0.8,5.8,10.6,5.8,10.9c-0.2,0.3-10,10.1-10,10.1   l6.3-0.2l12.6-9.2C36,441.8,20.8,414.7,20.8,414.8z"
   id="path3074" />
	<path
   id="Musica_168_"
   class="st1"
   d="M28.4,512.2L14.8,543l-8-0.8l-3.7,8.6c0,0,3.9,2.1,10.8,1.7l4.5-6l10.3-23.6   c0.2,0.5,4,7.4,4.1,7.6c-0.2,0.2-7,7-7,7l4.4-0.1l8.8-6.4C39,530.9,28.4,512.1,28.4,512.2z" />
	<path
   id="Musica_167_"
   class="st1"
   d="M53.5,514L71,553.6l-7.7,6.9l5,10.9c0,0,5.3-1.8,10.9-8.8l-1.8-9.4L63.9,523   c0.7,0.3,10.5,2.6,10.7,2.7c0,0.3,0.7,12.7,0.7,12.7l3.6-4.3l1.5-13.9C80.4,520.2,53.4,513.9,53.5,514z" />
	<path
   id="Musica_166_"
   class="st1"
   d="M137.5,513l-26,59.2l-15.4-1.5L89,587.3c0,0,7.4,4,20.7,3.2l8.7-11.5l19.8-45.4   c0.4,1,7.7,14.1,7.8,14.5c-0.3,0.4-13.4,13.5-13.4,13.5l8.4-0.3l16.8-12.3C157.8,549,137.6,512.9,137.5,513z" />
	<path
   id="Musica_165_"
   class="st1"
   d="M168.2,516.3l22.3,46.2l-8.9,8.5l6.3,12.8c0,0,6.3-2.4,12.6-10.8l-2.5-11.1l-17.1-35.4   c0.8,0.3,12.5,2.6,12.8,2.8c0.1,0.4,1.2,15,1.2,15l4.2-5.2l1.3-16.5C200.3,522.6,168.1,516.2,168.2,516.3z" />
	<path
   id="Musica_164_"
   class="st1"
   d="M242.1,513.7l-15.3,37.3l-9.9-0.8l-4.1,10.4c0,0,4.8,2.5,13.3,1.9l5.3-7.2l11.6-28.6   c0.3,0.6,5.3,8.8,5.4,9c-0.2,0.2-8.3,8.6-8.3,8.6l5.4-0.2L256,536C256,536,242.1,513.5,242.1,513.7z" />
	<path
   id="Musica_163_"
   class="st1"
   d="M279,513.2l18.6,44.7l-8.8,7.5l5.3,12.4c0,0,6-1.9,12.4-9.5l-1.7-10.6l-14.3-34.2   c0.7,0.3,11.7,3.1,11.9,3.3c0,0.3,0.4,14.2,0.4,14.2l4.2-4.7l2-15.5C309,520.8,279,513,279,513.2z" />
	<path
   id="Musica_162_"
   class="st1"
   d="M367.9,511.7l-23.2,54.8l-14.2-1.2l-6.3,15.3c0,0,6.9,3.6,19,2.7l7.8-10.7l17.7-42   c0.4,0.9,7.3,12.9,7.4,13.3c-0.3,0.3-12.1,12.6-12.1,12.6l7.7-0.4l15.3-11.5C387,544.6,367.9,511.6,367.9,511.7z" />
	<path
   id="Musica_161_"
   class="st1"
   d="M398,515.5l19.7,27.3l-4.8,6.5l5.5,7.5c0,0,3.8-2.2,6.9-8.4l-2.9-6.9l-15.1-20.9   c0.5,0.1,8.4,0.3,8.6,0.3c0.1,0.2,2.5,9.6,2.5,9.6l2.1-3.8l-1.1-10.8C419.5,515.9,398,515.4,398,515.5z" />
	<path
   id="Musica_160_"
   class="st1"
   d="M466.4,513.1l-15.7,40.3l-10.3-0.6l-4.2,11.3c0,0,5.1,2.5,13.9,1.6l5.4-7.9l11.9-30.9   c0.3,0.7,5.6,9.2,5.6,9.5c-0.2,0.2-8.5,9.4-8.5,9.4l5.6-0.4l10.9-8.7C481,536.5,466.5,512.9,466.4,513.1z" />
	<path
   id="Musica_159_"
   class="st1"
   d="M490.9,513.3l29.4,57.6l-10.9,11l8.3,15.9c0,0,7.8-3.2,15.6-14l-3.4-14l-22.6-44.1   c1,0.4,15.8,3,16.2,3.1c0.1,0.5,2,18.9,2,18.9l5.1-6.7l1.1-20.8C531.6,520.3,490.8,513.1,490.9,513.3z" />
	<path
   id="Musica_158_"
   class="st1"
   d="M589.5,513.4l-23.1,45.9l-12.1-1.9l-6.3,12.8c0,0,5.7,3.5,16.2,3.4l7.3-8.7l17.6-35.1   c0.3,0.8,5.5,11.5,5.6,11.8c-0.3,0.3-11.2,10.2-11.2,10.2l6.7,0.1l13.9-9.1C604.1,542.8,589.6,513.3,589.5,513.4z" />
	<path
   id="Musica_157_"
   class="st1"
   d="M617.5,517.6l17.9,36.1l-7.2,6.9l5.1,10c0,0,5.1-2,10.2-8.8l-2-8.7l-13.8-27.6   c0.6,0.2,10.1,1.8,10.3,1.9c0,0.3,1,11.9,1,11.9l3.4-4.2l1-13.1C643.4,522,617.4,517.5,617.5,517.6z" />
	<path
   id="Musica_156_"
   class="st1"
   d="M696.4,514.5L677,558.8l-11.5-1.2l-5.3,12.4c0,0,5.5,3,15.5,2.4l6.5-8.6l14.8-34   c0.3,0.8,5.8,10.6,5.8,10.9c-0.2,0.3-10,10.1-10,10.1l6.3-0.2l12.6-9.2C711.6,541.4,696.5,514.4,696.4,514.5z" />
	<path
   id="Musica_155_"
   class="st1"
   d="M722.6,513.2l24.1,54.4l-10.6,9.5l6.9,15c0,0,7.3-2.5,15-12l-2.4-13l-18.6-41.6   c0.9,0.4,14.4,3.5,14.7,3.7c0.1,0.4,0.9,17.5,0.9,17.5l5-5.9l2.1-19.1C759.6,521.7,722.5,513,722.6,513.2z" />
	<path
   id="Musica_154_"
   class="st1"
   d="M805.6,512.9l-13.6,30.8l-8-0.8l-3.7,8.6c0,0,3.9,2.1,10.8,1.7l4.5-6l10.3-23.6   c0.2,0.5,4,7.4,4.1,7.6c-0.2,0.2-7,7-7,7l4.4-0.1l8.8-6.4C816.2,531.6,805.7,512.8,805.6,512.9z" />
	<path
   id="Musica_153_"
   class="st1"
   d="M830.7,514.8l17.5,39.6l-7.7,6.9l5,10.9c0,0,5.3-1.8,10.9-8.8l-1.8-9.4l-13.5-30.2   c0.7,0.3,10.5,2.6,10.7,2.7c0,0.3,0.7,12.7,0.7,12.7l3.6-4.3l1.5-13.9C857.6,521,830.7,514.6,830.7,514.8z" />
	<path
   id="Musica_152_"
   class="st1"
   d="M914.7,513.8l-26,59.2l-15.4-1.5l-7.1,16.5c0,0,7.4,4,20.7,3.2l8.7-11.5l19.8-45.4   c0.4,1,7.7,14.1,7.8,14.5c-0.3,0.4-13.4,13.5-13.4,13.5l8.4-0.3l16.8-12.3C935,549.8,914.8,513.6,914.7,513.8z" />
	<path
   id="Musica_151_"
   class="st1"
   d="M945.4,517l22.3,46.2l-8.9,8.5l6.3,12.8c0,0,6.3-2.4,12.6-10.8l-2.5-11.1l-17.1-35.4   c0.8,0.3,12.5,2.6,12.8,2.8c0.1,0.4,1.2,15,1.2,15l4.2-5.2l1.3-16.5C977.6,523.4,945.4,516.9,945.4,517z" />
	<path
   id="Musica_150_"
   class="st1"
   d="M1019.3,514.4l-15.3,37.3l-9.9-0.8l-4.1,10.4c0,0,4.8,2.5,13.3,1.9l5.3-7.2l11.6-28.6   c0.3,0.6,5.3,8.8,5.4,9c-0.2,0.2-8.3,8.6-8.3,8.6l5.4-0.2l10.5-7.8C1033.2,536.8,1019.4,514.3,1019.3,514.4z" />
	<path
   id="Musica_149_"
   class="st1"
   d="M1056.2,513.9l18.6,44.7l-8.8,7.5l5.3,12.4c0,0,6-1.9,12.4-9.5l-1.7-10.6l-14.3-34.2   c0.7,0.3,11.7,3.1,11.9,3.3c0,0.3,0.4,14.2,0.4,14.2l4.2-4.7l2-15.5C1086.2,521.5,1056.2,513.8,1056.2,513.9z" />
	<path
   id="Musica_148_"
   class="st1"
   d="M1145.1,512.5l-23.2,54.8l-14.2-1.2l-6.3,15.3c0,0,6.9,3.6,19,2.7l7.8-10.7l17.7-42   c0.4,0.9,7.3,12.9,7.4,13.3c-0.3,0.3-12.1,12.6-12.1,12.6l7.7-0.4l15.3-11.5C1164.2,545.3,1145.2,512.3,1145.1,512.5z" />
	<path
   id="Musica_147_"
   class="st1"
   d="M1175.3,516.3l19.7,27.3l-4.8,6.5l5.5,7.5c0,0,3.8-2.2,6.9-8.4l-2.9-6.9l-15.1-20.9   c0.5,0.1,8.4,0.3,8.6,0.3c0.1,0.2,2.5,9.6,2.5,9.6l2.1-3.8l-1.1-10.8C1196.8,516.7,1175.2,516.2,1175.3,516.3z" />
	<path
   id="Musica_146_"
   class="st1"
   d="M1243.7,513.8l-15.7,40.3l-10.3-0.6l-4.2,11.3c0,0,5.1,2.5,13.9,1.6l5.4-7.9l11.9-30.9   c0.3,0.7,5.6,9.2,5.6,9.5c-0.2,0.2-8.5,9.4-8.5,9.4l5.6-0.4l10.9-8.7C1258.3,537.3,1243.7,513.7,1243.7,513.8z" />
	<path
   id="Musica_145_"
   class="st1"
   d="M1268.1,514l29.4,57.6l-10.9,11l8.3,15.9c0,0,7.8-3.2,15.6-14l-3.4-14l-22.6-44.1   c1,0.4,15.8,3,16.2,3.1c0.1,0.5,2,18.9,2,18.9l5.1-6.7l1.1-20.8C1308.8,521.1,1268,513.8,1268.1,514z" />
	<path
   class="st1"
   d="M1342.7,560l-12.1-1.9l-6.3,12.8c0,0,5.7,3.5,16.2,3.4l7.3-8.7l17.6-35.1c0,0.1,0.2,0.4,0.3,0.8v-17.1   L1342.7,560z"
   id="path3100" />
	<path
   class="st1"
   d="M1360.8,552.5l5.9,0.1v-5.5C1363.9,549.7,1360.8,552.5,1360.8,552.5z"
   id="path3102" />
	<path
   id="Musica_144_"
   class="st1"
   d="M50.1,610.6L74.2,665l-10.6,9.5l6.9,15c0,0,7.3-2.5,15-12l-2.4-13L64.4,623   c0.9,0.4,14.4,3.5,14.7,3.7c0.1,0.4,0.9,17.5,0.9,17.5l5-5.9l2.1-19.1C87.1,619.2,50,610.5,50.1,610.6z" />
	<path
   id="Musica_143_"
   class="st1"
   d="M133.2,610.4l-13.6,30.8l-8-0.8l-3.7,8.6c0,0,3.9,2.1,10.8,1.7l4.5-6l10.3-23.6   c0.2,0.5,4,7.4,4.1,7.6c-0.2,0.2-7,7-7,7l4.4-0.1l8.8-6.4C143.7,629.1,133.2,610.3,133.2,610.4z" />
	<path
   id="Musica_142_"
   class="st1"
   d="M158.2,612.2l17.5,39.6l-7.7,6.9l5,10.9c0,0,5.3-1.8,10.9-8.8l-1.8-9.4l-13.5-30.2   c0.7,0.3,10.5,2.6,10.7,2.7c0,0.3,0.7,12.7,0.7,12.7l3.6-4.3l1.5-13.9C185.2,618.4,158.2,612.1,158.2,612.2z" />
	<path
   id="Musica_141_"
   class="st1"
   d="M242.3,611.3l-26,59.2l-15.4-1.5l-7.1,16.5c0,0,7.4,4,20.7,3.2l8.7-11.5l19.8-45.4   c0.4,1,7.7,14.1,7.8,14.5c-0.3,0.4-13.4,13.5-13.4,13.5l8.4-0.3l16.8-12.3C262.5,647.3,242.3,611.1,242.3,611.3z" />
	<path
   id="Musica_140_"
   class="st1"
   d="M272.9,614.5l22.3,46.2l-8.9,8.5l6.3,12.8c0,0,6.3-2.4,12.6-10.8l-2.5-11.1l-17.1-35.4   c0.8,0.3,12.5,2.6,12.8,2.8c0.1,0.4,1.2,15,1.2,15l4.2-5.2l1.3-16.5C305.1,620.8,272.9,614.4,272.9,614.5z" />
	<path
   id="Musica_139_"
   class="st1"
   d="M346.9,611.9l-15.3,37.3l-9.9-0.8l-4.1,10.4c0,0,4.8,2.5,13.3,1.9l5.3-7.2l11.6-28.6   c0.3,0.6,5.3,8.8,5.4,9c-0.2,0.2-8.3,8.6-8.3,8.6l5.4-0.2l10.5-7.8C360.7,634.2,346.9,611.8,346.9,611.9z" />
	<path
   id="Musica_138_"
   class="st1"
   d="M383.8,611.4l18.6,44.7l-8.8,7.5l5.3,12.4c0,0,6-1.9,12.4-9.5l-1.7-10.6l-14.3-34.2   c0.7,0.3,11.7,3.1,11.9,3.3c0,0.3,0.4,14.2,0.4,14.2l4.2-4.7l2-15.5C413.7,619,383.7,611.3,383.8,611.4z" />
	<path
   id="Musica_137_"
   class="st1"
   d="M472.6,610l-23.2,54.8l-14.2-1.2l-6.3,15.3c0,0,6.9,3.6,19,2.7l7.8-10.7l17.7-42   c0.4,0.9,7.3,12.9,7.4,13.3c-0.3,0.3-12.1,12.6-12.1,12.6l7.7-0.4l15.3-11.5C491.7,642.8,472.7,609.8,472.6,610z" />
	<path
   id="Musica_136_"
   class="st1"
   d="M502.8,613.7l19.7,27.3l-4.8,6.5l5.5,7.5c0,0,3.8-2.2,6.9-8.4l-2.9-6.9l-15.1-20.9   c0.5,0.1,8.4,0.3,8.6,0.3c0.1,0.2,2.5,9.6,2.5,9.6l2.1-3.8l-1.1-10.8C524.3,614.2,502.7,613.7,502.8,613.7z" />
	<path
   id="Musica_135_"
   class="st1"
   d="M571.2,611.3l-15.7,40.3l-10.3-0.6l-4.2,11.3c0,0,5.1,2.5,13.9,1.6l5.4-7.9l11.9-30.9   c0.3,0.7,5.6,9.2,5.6,9.5c-0.2,0.2-8.5,9.4-8.5,9.4l5.6-0.4l10.9-8.7C585.8,634.7,571.2,611.2,571.2,611.3z" />
	<path
   id="Musica_134_"
   class="st1"
   d="M595.6,611.5l29.4,57.6l-10.9,11l8.3,15.9c0,0,7.8-3.2,15.6-14l-3.4-14L611.9,624   c1,0.4,15.8,3,16.2,3.1c0.1,0.5,2,18.9,2,18.9l5.1-6.7l1.1-20.8C636.3,618.6,595.5,611.3,595.6,611.5z" />
	<path
   id="Musica_133_"
   class="st1"
   d="M694.3,611.6l-23.1,45.9l-12.1-1.9l-6.3,12.8c0,0,5.7,3.5,16.2,3.4l7.3-8.7l17.6-35.1   c0.3,0.8,5.5,11.5,5.6,11.8c-0.3,0.3-11.2,10.2-11.2,10.2l6.7,0.1l13.9-9.1C708.9,641,694.3,611.5,694.3,611.6z" />
	<path
   id="Musica_132_"
   class="st1"
   d="M722.2,615.8l17.9,36.1l-7.2,6.9l5.1,10c0,0,5.1-2,10.2-8.8l-2-8.7l-13.8-27.6   c0.6,0.2,10.1,1.8,10.3,1.9c0,0.3,1,11.9,1,11.9l3.4-4.2l1-13.1C748.2,620.2,722.2,615.7,722.2,615.8z" />
	<path
   id="Musica_131_"
   class="st1"
   d="M801.2,612.7L781.7,657l-11.5-1.2l-5.3,12.4c0,0,5.5,3,15.5,2.4l6.5-8.6l14.8-34   c0.3,0.8,5.8,10.6,5.8,10.9c-0.2,0.3-10,10.1-10,10.1l6.3-0.2l12.6-9.2C816.4,639.6,801.3,612.6,801.2,612.7z" />
	<path
   id="Musica_130_"
   class="st1"
   d="M827.3,611.4l24.1,54.4l-10.6,9.5l6.9,15c0,0,7.3-2.5,15-12l-2.4-13l-18.6-41.6   c0.9,0.4,14.4,3.5,14.7,3.7c0.1,0.4,0.9,17.5,0.9,17.5l5-5.9l2.1-19.1C864.3,619.9,827.2,611.2,827.3,611.4z" />
	<path
   id="Musica_129_"
   class="st1"
   d="M910.4,611.1L896.8,642l-8-0.8l-3.7,8.6c0,0,3.9,2.1,10.8,1.7l4.5-6l10.3-23.6   c0.2,0.5,4,7.4,4.1,7.6c-0.2,0.2-7,7-7,7l4.4-0.1l8.8-6.4C920.9,629.9,910.4,611,910.4,611.1z" />
	<path
   id="Musica_128_"
   class="st1"
   d="M935.5,613l17.5,39.6l-7.7,6.9l5,10.9c0,0,5.3-1.8,10.9-8.8l-1.8-9.4l-13.5-30.2   c0.7,0.3,10.5,2.6,10.7,2.7c0,0.3,0.7,12.7,0.7,12.7l3.6-4.3l1.5-13.9C962.4,619.2,935.4,612.9,935.5,613z" />
	<path
   id="Musica_127_"
   class="st1"
   d="M1019.5,612l-26,59.2l-15.4-1.5l-7.1,16.5c0,0,7.4,4,20.7,3.2l8.7-11.5l19.8-45.4   c0.4,1,7.7,14.1,7.8,14.5c-0.3,0.4-13.4,13.5-13.4,13.5l8.4-0.3l16.8-12.3C1039.8,648,1019.6,611.8,1019.5,612z" />
	<path
   id="Musica_126_"
   class="st1"
   d="M1050.2,615.3l22.3,46.2l-8.9,8.5l6.3,12.8c0,0,6.3-2.4,12.6-10.8l-2.5-11.1l-17.1-35.4   c0.8,0.3,12.5,2.6,12.8,2.8c0.1,0.4,1.2,15,1.2,15l4.2-5.2l1.3-16.5C1082.3,621.6,1050.1,615.1,1050.2,615.3z" />
	<path
   id="Musica_125_"
   class="st1"
   d="M1124.1,612.6l-15.3,37.3l-9.9-0.8l-4.1,10.4c0,0,4.8,2.5,13.3,1.9l5.3-7.2l11.6-28.6   c0.3,0.6,5.3,8.8,5.4,9c-0.2,0.2-8.3,8.6-8.3,8.6l5.4-0.2l10.5-7.8C1138,635,1124.1,612.5,1124.1,612.6z" />
	<path
   id="Musica_124_"
   class="st1"
   d="M1161,612.2l18.6,44.7l-8.8,7.5l5.3,12.4c0,0,6-1.9,12.4-9.5l-1.7-10.6l-14.3-34.2   c0.7,0.3,11.7,3.1,11.9,3.3c0,0.3,0.4,14.2,0.4,14.2l4.2-4.7l2-15.5C1191,619.8,1160.9,612,1161,612.2z" />
	<path
   id="Musica_123_"
   class="st1"
   d="M1249.9,610.7l-23.2,54.8l-14.2-1.2l-6.3,15.3c0,0,6.9,3.6,19,2.7l7.8-10.7l17.7-42   c0.4,0.9,7.3,12.9,7.4,13.3c-0.3,0.3-12.1,12.6-12.1,12.6l7.7-0.4l15.3-11.5C1269,643.6,1249.9,610.6,1249.9,610.7z" />
	<path
   id="Musica_122_"
   class="st1"
   d="M1280,614.5l19.7,27.3l-4.8,6.5l5.5,7.5c0,0,3.8-2.2,6.9-8.4l-2.9-6.9l-15.1-20.9   c0.5,0.1,8.4,0.3,8.6,0.3c0.1,0.2,2.5,9.6,2.5,9.6l2.1-3.8l-1.1-10.8C1301.5,614.9,1280,614.4,1280,614.5z" />
	<path
   id="Musica_121_"
   class="st1"
   d="M1348.4,612l-15.7,40.3l-10.3-0.6l-4.2,11.3c0,0,5.1,2.5,13.9,1.6l5.4-7.9l11.9-30.9   c0.3,0.7,5.6,9.2,5.6,9.5c-0.2,0.2-8.5,9.4-8.5,9.4l5.6-0.4l10.9-8.7C1363,635.5,1348.5,611.9,1348.4,612z" />
	<path
   class="st1"
   d="M24,612L4.5,656.3l-0.5,0v12.5l5.6-7.4l14.8-34c0.3,0.8,5.8,10.6,5.8,10.9c-0.2,0.3-10,10.1-10,10.1l6.3-0.2   l12.6-9.2C39.1,638.9,24,611.8,24,612z"
   id="path3128" />
	<path
   class="st1"
   d="M13.1,749.6l4.5-6L27.9,720c0.2,0.5,4,7.4,4.1,7.6c-0.2,0.2-7,7-7,7l4.4-0.1l8.8-6.4c0,0-10.5-18.8-10.6-18.7   L14,740.1l-8-0.8l-3.7,8.6C2.3,747.9,6.2,750,13.1,749.6z"
   id="path3130" />
	<path
   class="st1"
   d="M78.4,759.8l-1.8-9.4l-13.5-30.2c0.7,0.3,10.5,2.6,10.7,2.7c0,0.3,0.7,12.7,0.7,12.7l3.6-4.3l1.5-13.9   c0,0-27-6.3-26.9-6.2l17.5,39.6l-7.7,6.9l4.7,10.4h1.5C70.6,767.1,74.4,764.7,78.4,759.8z"
   id="path3132" />
	<path
   class="st1"
   d="M137.3,730.7c0.4,1,7.7,14.1,7.8,14.5c-0.3,0.4-13.4,13.5-13.4,13.5l8.4-0.3l16.8-12.3c0,0-20.2-36.2-20.3-36   L111.2,768h9.8L137.3,730.7z"
   id="path3134" />
	<polygon
   class="st1"
   points="95.2,767.8 95.2,768 96.8,768  "
   id="polygon3136" />
	<path
   class="st1"
   d="M197.2,759l-17.1-35.4c0.8,0.3,12.5,2.6,12.8,2.8c0.1,0.4,1.2,15,1.2,15l4.2-5.2l1.3-16.5   c0,0-32.2-6.5-32.2-6.3l22.3,46.2l-8.7,8.3h18.3L197.2,759z"
   id="path3138" />
	<path
   class="st1"
   d="M225.3,759.4l5.3-7.2l11.6-28.6c0.3,0.6,5.3,8.8,5.4,9c-0.2,0.2-8.3,8.6-8.3,8.6l5.4-0.2l10.5-7.8   c0,0-13.8-22.5-13.9-22.3L226,748l-9.9-0.8l-4.1,10.4C212,757.6,216.8,760.1,225.3,759.4z"
   id="path3140" />
	<path
   class="st1"
   d="M305.7,765.4l-1.7-10.6l-14.3-34.2c0.7,0.3,11.7,3.1,11.9,3.3c0,0.3,0.4,14.2,0.4,14.2l4.2-4.7l2-15.5   c0,0-30-7.7-30-7.6l18.6,44.7l-8.8,7.5l2.3,5.5h12.9C304.1,767.2,304.9,766.3,305.7,765.4z"
   id="path3142" />
	<path
   class="st1"
   d="M367.9,727.8c0.4,0.9,7.3,12.9,7.4,13.3c-0.3,0.3-12.1,12.6-12.1,12.6l7.7-0.4l15.3-11.5c0,0-19-33-19.1-32.8   l-23.2,54.8l-14.2-1.2l-2.3,5.6H351L367.9,727.8z"
   id="path3144" />
	<path
   class="st1"
   d="M412.1,746.5l5.5,7.5c0,0,3.8-2.2,6.9-8.4l-2.9-6.9l-15.1-20.9c0.5,0.1,8.4,0.3,8.6,0.3   c0.1,0.2,2.5,9.6,2.5,9.6l2.1-3.8l-1.1-10.8c0,0-21.6-0.5-21.5-0.4l19.7,27.3L412.1,746.5z"
   id="path3146" />
	<path
   class="st1"
   d="M449.3,762.7l5.4-7.9l11.9-30.9c0.3,0.7,5.6,9.2,5.6,9.5c-0.2,0.2-8.5,9.4-8.5,9.4l5.6-0.4l10.9-8.7   c0,0-14.6-23.6-14.6-23.5l-15.7,40.3l-10.3-0.6l-4.2,11.3C435.4,761.2,440.4,763.7,449.3,762.7z"
   id="path3148" />
	<path
   class="st1"
   d="M529,767l-22.6-44.1c1,0.4,15.8,3,16.2,3.1c0.1,0.5,2,18.9,2,18.9l5.1-6.7l1.1-20.8c0,0-40.8-7.2-40.7-7.1   l29.4,57.6h9.8L529,767z"
   id="path3150" />
	<path
   class="st1"
   d="M570.8,762l17.6-35.1c0.3,0.8,5.5,11.5,5.6,11.8c-0.3,0.3-11.2,10.2-11.2,10.2l6.7,0.1l13.9-9.1   c0,0-14.5-29.5-14.6-29.3l-23.1,45.9l-12.1-1.9l-6.3,12.8c0,0,0.4,0.3,1.3,0.7h17.3L570.8,762z"
   id="path3152" />
	<path
   class="st1"
   d="M627.4,757.7l5.1,10c0,0,5.1-2,10.2-8.8l-2-8.7l-13.8-27.6c0.6,0.2,10.1,1.8,10.3,1.9c0,0.3,1,11.9,1,11.9   l3.4-4.2l1-13.1c0,0-26-4.5-26-4.3l17.9,36.1L627.4,757.7z"
   id="path3154" />
	<path
   class="st1"
   d="M681.3,761l14.8-34c0.3,0.8,5.8,10.6,5.8,10.9c-0.2,0.3-10,10.1-10,10.1l6.3-0.2l12.6-9.2   c0,0-15.1-27.1-15.2-26.9l-19.5,44.3l-11.5-1.2l-5.3,12.4c0,0,0.7,0.4,2.1,0.9H676L681.3,761z"
   id="path3156" />
	<path
   class="st1"
   d="M754.7,764.2l-18.6-41.6c0.9,0.4,14.4,3.5,14.7,3.7c0.1,0.4,0.9,17.5,0.9,17.5l5-5.9l2.1-19.1   c0,0-37.1-8.7-37-8.5l24.1,54.4l-3.7,3.3h13.2L754.7,764.2z"
   id="path3158" />
	<path
   class="st1"
   d="M790.3,750.3l4.5-6l10.3-23.6c0.2,0.5,4,7.4,4.1,7.6c-0.2,0.2-7,7-7,7l4.4-0.1l8.8-6.4   c0,0-10.5-18.8-10.6-18.7l-13.6,30.8l-8-0.8l-3.7,8.6C779.6,748.7,783.4,750.8,790.3,750.3z"
   id="path3160" />
	<path
   class="st1"
   d="M855.6,760.5l-1.8-9.4l-13.5-30.2c0.7,0.3,10.5,2.6,10.7,2.7c0,0.3,0.7,12.7,0.7,12.7l3.6-4.3l1.5-13.9   c0,0-27-6.3-26.9-6.2l17.5,39.6l-7.7,6.9l4.4,9.6h3.2C849.4,766.8,852.4,764.5,855.6,760.5z"
   id="path3162" />
	<path
   class="st1"
   d="M914.5,731.5c0.4,1,7.7,14.1,7.8,14.5c-0.3,0.4-13.4,13.5-13.4,13.5l8.4-0.3l16.8-12.3c0,0-20.2-36.2-20.3-36   L888.8,768h9.8L914.5,731.5z"
   id="path3164" />
	<path
   class="st1"
   d="M974.5,759.7l-17.1-35.4c0.8,0.3,12.5,2.6,12.8,2.8c0.1,0.4,1.2,15,1.2,15l4.2-5.2l1.3-16.5   c0,0-32.2-6.5-32.2-6.3l22.3,46.2l-7.9,7.6h17.4L974.5,759.7z"
   id="path3166" />
	<path
   class="st1"
   d="M1002.5,760.2l5.3-7.2l11.6-28.6c0.3,0.6,5.3,8.8,5.4,9c-0.2,0.2-8.3,8.6-8.3,8.6l5.4-0.2l10.5-7.8   c0,0-13.8-22.5-13.9-22.3l-15.3,37.3l-9.9-0.8l-4.1,10.4C989.2,758.3,994.1,760.8,1002.5,760.2z"
   id="path3168" />
	<path
   class="st1"
   d="M1083,766.1l-1.7-10.6l-14.3-34.2c0.7,0.3,11.7,3.1,11.9,3.3c0,0.3,0.4,14.2,0.4,14.2l4.2-4.7l2-15.5   c0,0-30-7.7-30-7.6l18.6,44.7l-8.8,7.5l2,4.7h14C1081.8,767.4,1082.4,766.8,1083,766.1z"
   id="path3170" />
	<path
   class="st1"
   d="M1145.1,728.5c0.4,0.9,7.3,12.9,7.4,13.3c-0.3,0.3-12.1,12.6-12.1,12.6l7.7-0.4l15.3-11.5c0,0-19-33-19.1-32.8   l-23.2,54.8l-14.2-1.2l-2,4.8h23.6L1145.1,728.5z"
   id="path3172" />
	<path
   class="st1"
   d="M1189.4,747.2l5.5,7.5c0,0,3.8-2.2,6.9-8.4l-2.9-6.9l-15.1-20.9c0.5,0.1,8.4,0.3,8.6,0.3   c0.1,0.2,2.5,9.6,2.5,9.6l2.1-3.8l-1.1-10.8c0,0-21.6-0.5-21.5-0.4l19.7,27.3L1189.4,747.2z"
   id="path3174" />
	<path
   class="st1"
   d="M1226.5,763.5l5.4-7.9l11.9-30.9c0.3,0.7,5.6,9.2,5.6,9.5c-0.2,0.2-8.5,9.4-8.5,9.4l5.6-0.4l10.9-8.7   c0,0-14.6-23.6-14.6-23.5l-15.7,40.3l-10.3-0.6l-4.2,11.3C1212.6,761.9,1217.7,764.4,1226.5,763.5z"
   id="path3176" />
	<path
   class="st1"
   d="M1306.2,767.7l-22.6-44.1c1,0.4,15.8,3,16.2,3.1c0.1,0.5,2,18.9,2,18.9l5.1-6.7l1.1-20.8   c0,0-40.8-7.2-40.7-7.1l29,56.9h10L1306.2,767.7z"
   id="path3178" />
	<path
   class="st1"
   d="M1348,762.8l17.6-35.1c0,0.1,0.2,0.4,0.3,0.8v-17.1l-23.1,45.9l-12.1-1.9l-6.2,12.7h19.1L1348,762.8z"
   id="path3180" />
	<path
   class="st1"
   d="M1365.9,749.7v-5.5c-2.9,2.6-5.9,5.4-5.9,5.4L1365.9,749.7z"
   id="path3182" />
	<polygon
   class="st1"
   points="111.2,768 96.8,768 110.6,769.4  "
   id="polygon3184" />
</g>
</svg>