<svg id="Pattern" xmlns="http://www.w3.org/2000/svg" viewBox="0 0 1366 768"><defs><style>.cls-1{fill:#ffd300;}.cls-2{fill:#fff;}</style></defs><rect id="Fundo" class="cls-1" width="1366" height="768"/><g id="Notas"><path id="Musica" class="cls-2" d="M46.07,19.76,70.18,74.14,59.59,83.65l6.86,15s7.32-2.52,15-12L79,73.65,60.43,32.07c.92.38,14.41,3.51,14.7,3.7.05.42.9,17.46.9,17.46l5-5.87,2.06-19.09S46,19.59,46.07,19.76Z"/><path id="Musica-2" data-name="Musica" class="cls-2" d="M129.14,19.49,115.58,50.32l-8-.8-3.68,8.6s3.85,2.11,10.76,1.68l4.5-6,10.32-23.64c.19.53,4,7.37,4.06,7.56-.16.19-7,7-7,7l4.37-.15,8.77-6.41S129.18,19.39,129.14,19.49Z"/><path id="Musica-3" data-name="Musica" class="cls-2" d="M154.22,21.34,171.75,60.9l-7.7,6.92,5,10.93S174.37,76.92,180,70l-1.78-9.45L164.67,30.3c.66.27,10.47,2.55,10.69,2.68,0,.31.65,12.71.65,12.71l3.64-4.28,1.5-13.88S154.16,21.22,154.22,21.34Z"/><path id="Musica-4" data-name="Musica" class="cls-2" d="M238.25,20.38l-26,59.22L196.8,78.06l-7.06,16.53s7.4,4,20.67,3.22l8.65-11.48L238.87,41c.37,1,7.74,14.14,7.81,14.52-.31.35-13.39,13.51-13.39,13.51l8.39-.28,16.85-12.33S238.33,20.2,238.25,20.38Z"/><path id="Musica-5" data-name="Musica" class="cls-2" d="M268.94,23.63l22.27,46.24-8.87,8.49,6.32,12.78s6.25-2.38,12.61-10.8l-2.46-11.13L281.66,33.85c.8.3,12.52,2.64,12.78,2.79.05.36,1.25,15,1.25,15l4.15-5.21L301.1,30S268.87,23.48,268.94,23.63Z"/><path id="Musica-6" data-name="Musica" class="cls-2" d="M342.84,21,327.59,58.24l-9.92-.84-4.12,10.4s4.84,2.47,13.33,1.85l5.27-7.25,11.6-28.55c.26.63,5.3,8.79,5.36,9-.19.22-8.26,8.56-8.26,8.56l5.38-.25,10.5-7.84S342.89,20.87,342.84,21Z"/><path id="Musica-7" data-name="Musica" class="cls-2" d="M379.76,20.51l18.6,44.68-8.79,7.54,5.3,12.36s6-1.91,12.42-9.52L405.55,65,391.21,30.79c.74.33,11.66,3.13,11.89,3.28,0,.35.41,14.23.41,14.23l4.17-4.69,2-15.49S379.7,20.37,379.76,20.51Z"/><path id="Musica-8" data-name="Musica" class="cls-2" d="M468.62,19.08l-23.2,54.77-14.18-1.22L425,87.91s6.85,3.63,19,2.71L451.81,80l17.65-42c.35.93,7.28,12.91,7.35,13.26-.27.32-12.14,12.59-12.14,12.59l7.71-.37,15.34-11.54S468.7,18.91,468.62,19.08Z"/><path id="Musica-9" data-name="Musica" class="cls-2" d="M498.78,22.86l19.68,27.33-4.76,6.5,5.54,7.54S523,62,526.15,55.81l-2.86-6.91L508.17,28c.55.1,8.39.27,8.58.34.07.23,2.52,9.58,2.52,9.58l2.09-3.84-1.07-10.82S498.72,22.77,498.78,22.86Z"/><path id="Musica-10" data-name="Musica" class="cls-2" d="M567.18,20.4,551.51,60.74l-10.34-.58-4.24,11.25S542,73.89,550.84,73L556.28,65,568.2,34.13c.27.66,5.58,9.22,5.64,9.47-.2.25-8.55,9.43-8.55,9.43l5.6-.44,10.89-8.73S567.23,20.28,567.18,20.4Z"/><path id="Musica-11" data-name="Musica" class="cls-2" d="M591.62,20.59,621,78.23l-10.94,11,8.33,15.93s7.81-3.16,15.57-14l-3.41-14-22.6-44.07c1,.36,15.85,3,16.18,3.15.08.46,2,18.92,2,18.92l5.09-6.68,1.12-20.84S591.52,20.42,591.62,20.59Z"/><path id="Musica-12" data-name="Musica" class="cls-2" d="M690.26,20.76,667.2,66.61l-12.13-1.85-6.28,12.8S654.49,81.07,665,81l7.33-8.74,17.56-35.15c.25.81,5.54,11.52,5.58,11.82-.25.27-11.15,10.16-11.15,10.16l6.65.12,13.86-9.08S690.33,20.62,690.26,20.76Z"/><path id="Musica-13" data-name="Musica" class="cls-2" d="M718.23,25,736.11,61l-7.18,6.89,5.08,10s5-2,10.2-8.78l-2-8.75L728.48,32.77c.64.22,10.1,1.83,10.31,1.94,0,.29,1,11.85,1,11.85l3.37-4.19,1-13.07S718.17,24.84,718.23,25Z"/><path id="Musica-14" data-name="Musica" class="cls-2" d="M797.19,21.83,777.7,66.13,766.18,65,760.9,77.35s5.53,3,15.46,2.41l6.47-8.59,14.82-33.95c.28.75,5.79,10.58,5.84,10.86-.23.26-10,10.11-10,10.11l6.28-.21,12.6-9.23S797.25,21.69,797.19,21.83Z"/><path id="Musica-15" data-name="Musica" class="cls-2" d="M823.31,20.51l24.11,54.38L836.83,84.4l6.85,15s7.33-2.52,15-12l-2.44-13L837.67,32.83c.92.37,14.41,3.51,14.7,3.69,0,.43.9,17.47.9,17.47l5-5.88L860.33,29S823.23,20.34,823.31,20.51Z"/><path id="Musica-16" data-name="Musica" class="cls-2" d="M906.38,20.24,892.82,51.07l-8-.8-3.67,8.61S885,61,891.89,60.56l4.5-6L906.71,31c.19.52,4,7.37,4.06,7.56-.16.18-7,7-7,7l4.37-.15L916.94,39S906.42,20.15,906.38,20.24Z"/><path id="Musica-17" data-name="Musica" class="cls-2" d="M931.46,22.09,949,61.65l-7.7,6.92,5,10.94s5.33-1.83,10.9-8.76l-1.77-9.45L941.9,31.05c.67.27,10.48,2.55,10.7,2.69,0,.31.65,12.71.65,12.71l3.64-4.28,1.49-13.88S931.4,22,931.46,22.09Z"/><path id="Musica-18" data-name="Musica" class="cls-2" d="M1015.49,21.13l-26,59.22L974,78.81,967,95.34s7.39,4,20.66,3.23l8.66-11.48,19.81-45.39c.37,1,7.74,14.15,7.8,14.52-.3.35-13.38,13.52-13.38,13.52l8.39-.29,16.85-12.33S1015.56,21,1015.49,21.13Z"/><path id="Musica-19" data-name="Musica" class="cls-2" d="M1046.18,24.38l22.27,46.24-8.87,8.49,6.32,12.78s6.25-2.37,12.6-10.79L1076.05,70,1058.9,34.61c.8.3,12.52,2.63,12.78,2.78,0,.37,1.24,15,1.24,15l4.16-5.2,1.25-16.52S1046.11,24.24,1046.18,24.38Z"/><path id="Musica-20" data-name="Musica" class="cls-2" d="M1120.08,21.74,1104.83,59l-9.92-.84-4.12,10.39s4.84,2.47,13.33,1.85l5.27-7.24L1121,34.6c.26.63,5.3,8.79,5.35,9-.18.23-8.25,8.57-8.25,8.57l5.38-.25,10.5-7.85S1120.13,21.63,1120.08,21.74Z"/><path id="Musica-21" data-name="Musica" class="cls-2" d="M1157,21.27,1175.6,66l-8.79,7.54,5.3,12.36s6-1.92,12.42-9.52l-1.74-10.61-14.34-34.17c.74.32,11.65,3.12,11.89,3.27,0,.35.4,14.23.4,14.23l4.18-4.69,2-15.48S1156.94,21.13,1157,21.27Z"/><path id="Musica-22" data-name="Musica" class="cls-2" d="M1245.86,19.84l-23.2,54.77-14.18-1.23-6.29,15.29s6.85,3.62,19,2.71L1229,80.72l17.65-42c.36.92,7.29,12.91,7.36,13.25-.28.33-12.14,12.6-12.14,12.6l7.71-.37L1265,52.67S1245.93,19.67,1245.86,19.84Z"/><path id="Musica-23" data-name="Musica" class="cls-2" d="M1276,23.61,1295.7,51l-4.77,6.5,5.55,7.53s3.77-2.24,6.91-8.41l-2.86-6.92-15.12-20.88c.55.1,8.39.27,8.57.33.08.23,2.53,9.58,2.53,9.58l2.09-3.84L1297.52,24S1276,23.53,1276,23.61Z"/><path id="Musica-24" data-name="Musica" class="cls-2" d="M1344.42,21.16l-15.67,40.33-10.34-.58-4.24,11.25s5.06,2.49,13.91,1.55l5.44-7.92,11.92-30.91c.27.66,5.58,9.23,5.64,9.48-.2.24-8.55,9.42-8.55,9.42l5.59-.44,10.9-8.73S1344.47,21,1344.42,21.16Z"/><path class="cls-2" d="M20,21.07.47,65.38l-.47,0V77.84l5.59-7.42,14.83-34c.27.75,5.78,10.59,5.83,10.86-.22.27-10,10.12-10,10.12l6.28-.22L35.12,48S20,20.94,20,21.07Z"/><path id="Musica-25" data-name="Musica" class="cls-2" d="M27.56,118.39,14,149.22l-8-.8L2.31,157s3.85,2.11,10.76,1.68l4.5-6L27.89,129.1c.19.52,4,7.36,4.06,7.56-.16.18-7,7-7,7l4.37-.15,8.77-6.41S27.6,118.29,27.56,118.39Z"/><path id="Musica-26" data-name="Musica" class="cls-2" d="M52.64,120.24,70.17,159.8l-7.7,6.92,5,10.94s5.33-1.84,10.91-8.77l-1.78-9.44L63.09,129.2c.66.27,10.47,2.55,10.69,2.68,0,.31.65,12.71.65,12.71l3.64-4.28,1.5-13.88S52.58,120.12,52.64,120.24Z"/><path id="Musica-27" data-name="Musica" class="cls-2" d="M136.67,119.28l-26,59.22L95.22,177l-7.06,16.53s7.4,4,20.67,3.22l8.65-11.47,19.81-45.39c.37,1,7.74,14.14,7.81,14.52-.31.35-13.39,13.51-13.39,13.51l8.39-.28L157,155.27S136.75,119.1,136.67,119.28Z"/><path id="Musica-28" data-name="Musica" class="cls-2" d="M167.36,122.53l22.27,46.24-8.87,8.49L187.08,190s6.25-2.38,12.61-10.8l-2.46-11.13-17.15-35.35c.8.29,12.52,2.63,12.78,2.78,0,.36,1.25,15,1.25,15l4.15-5.21,1.26-16.51S167.29,122.39,167.36,122.53Z"/><path id="Musica-29" data-name="Musica" class="cls-2" d="M241.26,119.89,226,157.14l-9.92-.84L212,166.7s4.84,2.47,13.33,1.85l5.27-7.25,11.6-28.55c.26.63,5.3,8.79,5.36,9-.19.22-8.26,8.56-8.26,8.56l5.38-.24,10.5-7.85S241.31,119.77,241.26,119.89Z"/><path id="Musica-30" data-name="Musica" class="cls-2" d="M278.18,119.41l18.6,44.68L288,171.63l5.3,12.36s6-1.91,12.42-9.52L304,163.86,289.63,129.7c.74.32,11.66,3.12,11.89,3.27,0,.35.41,14.23.41,14.23l4.17-4.69,2-15.49S278.12,119.27,278.18,119.41Z"/><path id="Musica-31" data-name="Musica" class="cls-2" d="M367,118l-23.2,54.78-14.18-1.23-6.29,15.28s6.85,3.63,19,2.71l7.82-10.66,17.65-42c.35.93,7.28,12.92,7.35,13.26-.27.32-12.14,12.59-12.14,12.59l7.71-.37,15.34-11.54S367.12,117.81,367,118Z"/><path id="Musica-32" data-name="Musica" class="cls-2" d="M397.2,121.76l19.68,27.33-4.76,6.5,5.54,7.54s3.77-2.25,6.91-8.42l-2.86-6.91-15.12-20.89c.55.1,8.39.27,8.58.34.07.23,2.52,9.58,2.52,9.58l2.09-3.84-1.07-10.82S397.14,121.67,397.2,121.76Z"/><path id="Musica-33" data-name="Musica" class="cls-2" d="M465.6,119.3l-15.67,40.34-10.34-.58-4.24,11.25s5.06,2.48,13.91,1.55l5.44-7.92L466.62,133c.27.66,5.58,9.23,5.64,9.47-.2.25-8.55,9.43-8.55,9.43l5.6-.44,10.89-8.73S465.65,119.18,465.6,119.3Z"/><path id="Musica-34" data-name="Musica" class="cls-2" d="M490,119.5l29.37,57.64-10.94,11L516.8,204s7.81-3.16,15.57-14l-3.41-14L506.36,132c1,.35,15.85,3,16.18,3.14.08.46,2,18.92,2,18.92l5.09-6.68,1.12-20.84S489.94,119.32,490,119.5Z"/><path id="Musica-35" data-name="Musica" class="cls-2" d="M588.68,119.66l-23.06,45.85-12.13-1.85-6.28,12.8s5.7,3.51,16.24,3.41l7.33-8.74L588.34,136c.25.81,5.54,11.52,5.58,11.82-.25.27-11.15,10.16-11.15,10.16l6.65.12L603.28,149S588.75,119.52,588.68,119.66Z"/><path id="Musica-36" data-name="Musica" class="cls-2" d="M616.65,123.86l17.88,36.06-7.18,6.89,5.08,10s5.05-2,10.2-8.78l-2-8.75L626.9,131.67c.64.22,10.1,1.83,10.31,1.94,0,.29,1,11.85,1,11.85l3.37-4.19,1.05-13.07S616.59,123.75,616.65,123.86Z"/><path id="Musica-37" data-name="Musica" class="cls-2" d="M695.61,120.73,676.12,165l-11.52-1.16-5.28,12.37s5.53,3,15.46,2.41l6.47-8.59,14.82-33.95c.28.75,5.79,10.58,5.84,10.86-.23.26-10,10.11-10,10.11l6.28-.21,12.6-9.22S695.67,120.59,695.61,120.73Z"/><path id="Musica-38" data-name="Musica" class="cls-2" d="M721.73,119.41l24.11,54.38-10.59,9.52,6.85,15s7.33-2.52,15-12l-2.44-13-18.57-41.58c.92.37,14.41,3.51,14.7,3.69.05.43.9,17.47.9,17.47l5-5.88,2.06-19.08S721.65,119.25,721.73,119.41Z"/><path id="Musica-39" data-name="Musica" class="cls-2" d="M804.8,119.14,791.24,150l-8-.81-3.67,8.61s3.85,2.1,10.76,1.68l4.5-6,10.32-23.63c.19.53,4,7.37,4.06,7.56-.16.18-7,7-7,7l4.37-.15,8.77-6.42S804.84,119.05,804.8,119.14Z"/><path id="Musica-40" data-name="Musica" class="cls-2" d="M829.88,121l17.53,39.56-7.7,6.92,5,10.94s5.33-1.83,10.9-8.76l-1.77-9.45L840.32,130c.67.27,10.48,2.56,10.7,2.69,0,.31.65,12.71.65,12.71l3.64-4.28,1.49-13.88S829.82,120.87,829.88,121Z"/><path id="Musica-41" data-name="Musica" class="cls-2" d="M913.91,120l-26,59.22-15.4-1.55-7.06,16.53s7.39,4,20.66,3.23L894.72,186l19.81-45.39c.37,1,7.74,14.15,7.8,14.52-.3.35-13.38,13.52-13.38,13.52l8.39-.29L934.19,156S914,119.85,913.91,120Z"/><path id="Musica-42" data-name="Musica" class="cls-2" d="M944.6,123.28l22.27,46.24L958,178l6.32,12.78s6.25-2.37,12.6-10.79l-2.45-11.14-17.15-35.35c.8.3,12.52,2.63,12.78,2.78,0,.37,1.24,15,1.24,15l4.16-5.2,1.25-16.52S944.53,123.14,944.6,123.28Z"/><path id="Musica-43" data-name="Musica" class="cls-2" d="M1018.5,120.64l-15.25,37.26-9.92-.84-4.12,10.4s4.84,2.46,13.33,1.85l5.27-7.25,11.6-28.56c.26.63,5.3,8.79,5.35,9-.18.23-8.25,8.57-8.25,8.57l5.38-.25,10.5-7.85S1018.55,120.53,1018.5,120.64Z"/><path id="Musica-44" data-name="Musica" class="cls-2" d="M1055.42,120.17l18.6,44.68-8.79,7.54,5.3,12.36s6-1.92,12.42-9.52l-1.74-10.61-14.34-34.17c.74.32,11.65,3.12,11.89,3.28,0,.34.4,14.22.4,14.22l4.18-4.69,2-15.48S1055.36,120,1055.42,120.17Z"/><path id="Musica-45" data-name="Musica" class="cls-2" d="M1144.28,118.74l-23.2,54.77-14.18-1.22-6.29,15.28s6.85,3.62,19,2.71l7.81-10.66,17.65-42c.36.92,7.29,12.91,7.36,13.25-.28.33-12.14,12.6-12.14,12.6l7.71-.37,15.34-11.54S1144.35,118.57,1144.28,118.74Z"/><path id="Musica-46" data-name="Musica" class="cls-2" d="M1174.44,122.51l19.68,27.34-4.77,6.5,5.55,7.54s3.77-2.25,6.91-8.42l-2.86-6.92-15.12-20.88c.55.1,8.39.27,8.57.34.08.23,2.53,9.57,2.53,9.57l2.09-3.84-1.08-10.81S1174.38,122.43,1174.44,122.51Z"/><path id="Musica-47" data-name="Musica" class="cls-2" d="M1242.84,120.06l-15.67,40.33-10.34-.58-4.24,11.25s5.06,2.49,13.91,1.55l5.44-7.92,11.92-30.91c.27.67,5.58,9.23,5.64,9.48-.2.24-8.55,9.42-8.55,9.42l5.59-.44,10.9-8.72S1242.89,119.93,1242.84,120.06Z"/><path id="Musica-48" data-name="Musica" class="cls-2" d="M1267.27,120.25l29.38,57.64-10.94,11,8.33,15.93s7.81-3.17,15.57-14l-3.41-14-22.61-44.07c1,.35,15.85,3,16.19,3.15.08.46,2,18.92,2,18.92l5.09-6.68,1.12-20.85S1267.18,120.07,1267.27,120.25Z"/><path class="cls-2" d="M1342.86,166.27l-12.14-1.86-6.27,12.81s5.69,3.5,16.24,3.4l7.33-8.74,17.55-35.15c0,.11.16.4.35.81V120.41Z"/><path class="cls-2" d="M1360,158.72l5.92.1v-5.48Z"/><path id="Musica-49" data-name="Musica" class="cls-2" d="M49.25,216.88l24.11,54.38-10.59,9.51,6.85,15s7.33-2.52,15-12.05l-2.44-13L63.61,229.19c.91.38,14.41,3.51,14.7,3.69,0,.43.89,17.47.89,17.47l5-5.88,2.06-19.08S49.17,216.71,49.25,216.88Z"/><path id="Musica-50" data-name="Musica" class="cls-2" d="M132.32,216.61l-13.56,30.83-8-.8-3.68,8.6s3.85,2.11,10.76,1.68l4.51-6,10.31-23.63c.2.53,4,7.37,4.07,7.56-.16.19-7,7-7,7l4.37-.15,8.77-6.42S132.36,216.51,132.32,216.61Z"/><path id="Musica-51" data-name="Musica" class="cls-2" d="M157.39,218.46,174.93,258l-7.7,6.92,5,10.94s5.33-1.83,10.9-8.76l-1.77-9.45-13.51-30.25c.67.28,10.48,2.56,10.7,2.69,0,.31.65,12.71.65,12.71l3.63-4.28,1.5-13.88S157.34,218.33,157.39,218.46Z"/><path id="Musica-52" data-name="Musica" class="cls-2" d="M241.42,217.5l-26,59.22L200,275.18l-7.06,16.52s7.39,4.05,20.66,3.23l8.66-11.48,19.81-45.39c.37,1,7.73,14.15,7.8,14.52-.3.36-13.38,13.52-13.38,13.52l8.39-.29,16.85-12.32S241.5,217.31,241.42,217.5Z"/><path id="Musica-53" data-name="Musica" class="cls-2" d="M272.12,220.75,294.39,267l-8.87,8.49,6.32,12.79s6.25-2.38,12.6-10.8L302,266.33,284.84,231c.79.3,12.51,2.64,12.77,2.79.06.36,1.25,15,1.25,15l4.16-5.21,1.25-16.51S272.05,220.6,272.12,220.75Z"/><path id="Musica-54" data-name="Musica" class="cls-2" d="M346,218.11l-15.25,37.25-9.92-.84-4.12,10.4s4.84,2.47,13.33,1.85l5.27-7.25L346.92,231c.27.62,5.31,8.78,5.36,9-.18.22-8.25,8.56-8.25,8.56l5.37-.25,10.51-7.84S346.07,218,346,218.11Z"/><path id="Musica-55" data-name="Musica" class="cls-2" d="M382.93,217.63l18.61,44.68-8.79,7.54,5.3,12.36s6-1.91,12.42-9.52l-1.74-10.61-14.34-34.17c.74.32,11.65,3.12,11.89,3.28,0,.34.4,14.22.4,14.22l4.18-4.69,2-15.48S382.88,217.49,382.93,217.63Z"/><path id="Musica-56" data-name="Musica" class="cls-2" d="M471.8,216.2,448.6,271l-14.18-1.22L428.13,285s6.85,3.63,19,2.71L455,277.08l17.65-42c.35.92,7.29,12.91,7.36,13.25-.28.33-12.14,12.6-12.14,12.6l7.71-.37L490.9,249S471.87,216,471.8,216.2Z"/><path id="Musica-57" data-name="Musica" class="cls-2" d="M502,220l19.68,27.34-4.77,6.5,5.55,7.54s3.77-2.25,6.91-8.42L526.47,246l-15.12-20.89c.55.1,8.39.27,8.57.34.08.23,2.53,9.57,2.53,9.57l2.09-3.83-1.08-10.82S501.9,219.89,502,220Z"/><path id="Musica-58" data-name="Musica" class="cls-2" d="M570.36,217.52l-15.68,40.33-10.33-.58-4.24,11.25s5.06,2.49,13.9,1.56l5.45-7.93,11.92-30.91c.27.67,5.58,9.23,5.63,9.48-.19.24-8.55,9.42-8.55,9.42l5.6-.43L585,241S570.4,217.39,570.36,217.52Z"/><path id="Musica-59" data-name="Musica" class="cls-2" d="M594.79,217.71l29.38,57.64L613.23,286.3l8.32,15.93s7.82-3.17,15.58-14l-3.41-14-22.61-44.07c1,.36,15.85,3,16.18,3.15.08.46,2,18.92,2,18.92l5.09-6.68,1.12-20.85S594.7,217.53,594.79,217.71Z"/><path id="Musica-60" data-name="Musica" class="cls-2" d="M693.44,217.88l-23.06,45.85-12.14-1.86L652,274.68s5.69,3.51,16.24,3.4l7.32-8.74,17.56-35.14c.25.81,5.55,11.52,5.59,11.82-.26.27-11.16,10.16-11.16,10.16l6.66.12L708,247.22S693.51,217.73,693.44,217.88Z"/><path id="Musica-61" data-name="Musica" class="cls-2" d="M721.4,222.07l17.89,36.07L732.11,265l5.08,10s5-2,10.2-8.78l-2-8.75-13.77-27.57c.65.22,10.1,1.82,10.31,1.94,0,.28,1,11.85,1,11.85l3.36-4.2,1.05-13.07S721.35,222,721.4,222.07Z"/><path id="Musica-62" data-name="Musica" class="cls-2" d="M800.36,219l-19.48,44.3-11.52-1.15-5.29,12.36s5.54,3,15.46,2.42l6.48-8.59,14.82-34c.28.76,5.79,10.59,5.84,10.87-.23.26-10,10.11-10,10.11l6.27-.21,12.61-9.23S800.42,218.81,800.36,219Z"/><path id="Musica-63" data-name="Musica" class="cls-2" d="M826.49,217.63,850.59,272,840,281.52l6.85,15s7.33-2.52,15-12l-2.44-13L840.85,230c.91.37,14.4,3.51,14.7,3.69.05.42.89,17.47.89,17.47l5-5.88,2.06-19.09S826.41,217.46,826.49,217.63Z"/><path id="Musica-64" data-name="Musica" class="cls-2" d="M909.56,217.36,896,248.19l-8-.8L884.3,256s3.85,2.1,10.76,1.68l4.51-6,10.31-23.63c.19.52,4,7.36,4.07,7.56-.16.18-7,7-7,7l4.37-.15,8.77-6.42S909.6,217.26,909.56,217.36Z"/><path id="Musica-65" data-name="Musica" class="cls-2" d="M934.63,219.21l17.54,39.56-7.7,6.92,5,10.94s5.33-1.84,10.91-8.76l-1.77-9.45-13.51-30.25c.66.27,10.48,2.55,10.69,2.69,0,.3.65,12.7.65,12.7l3.64-4.27,1.5-13.89S934.58,219.09,934.63,219.21Z"/><path id="Musica-66" data-name="Musica" class="cls-2" d="M1018.66,218.25l-26,59.22-15.4-1.54-7.07,16.53s7.4,4,20.67,3.23l8.65-11.48,19.82-45.39c.37,1,7.73,14.15,7.8,14.52-.3.35-13.38,13.52-13.38,13.52l8.39-.29,16.84-12.33S1018.74,218.07,1018.66,218.25Z"/><path id="Musica-67" data-name="Musica" class="cls-2" d="M1049.35,221.5l22.28,46.24-8.87,8.49,6.32,12.78s6.25-2.37,12.6-10.8l-2.46-11.13-17.15-35.35c.8.3,12.52,2.63,12.78,2.78.06.37,1.25,15,1.25,15l4.15-5.2,1.26-16.52S1049.28,221.36,1049.35,221.5Z"/><path id="Musica-68" data-name="Musica" class="cls-2" d="M1123.26,218.86,1108,256.12l-9.91-.84L1094,265.67s4.85,2.47,13.34,1.85l5.26-7.25,11.6-28.55c.26.63,5.31,8.79,5.36,9-.19.22-8.25,8.56-8.25,8.56l5.37-.24,10.5-7.85S1123.3,218.75,1123.26,218.86Z"/><path id="Musica-69" data-name="Musica" class="cls-2" d="M1160.17,218.39l18.61,44.68-8.79,7.54,5.3,12.36s6-1.92,12.42-9.53L1186,262.83l-14.33-34.16c.73.32,11.65,3.12,11.89,3.27,0,.35.4,14.23.4,14.23l4.18-4.69,2-15.49S1160.11,218.25,1160.17,218.39Z"/><path id="Musica-70" data-name="Musica" class="cls-2" d="M1249,217l-23.2,54.77-14.18-1.23-6.29,15.29s6.85,3.62,19,2.71l7.81-10.66,17.65-42c.35.92,7.29,12.91,7.36,13.25-.28.33-12.14,12.59-12.14,12.59l7.71-.36,15.34-11.55S1249.11,216.79,1249,217Z"/><path id="Musica-71" data-name="Musica" class="cls-2" d="M1279.19,220.73l19.68,27.33-4.76,6.51,5.55,7.53s3.77-2.25,6.91-8.41l-2.86-6.92-15.13-20.89c.55.11,8.4.28,8.58.34.08.23,2.53,9.58,2.53,9.58l2.09-3.84-1.08-10.81S1279.13,220.64,1279.19,220.73Z"/><path id="Musica-72" data-name="Musica" class="cls-2" d="M1347.59,218.27l-15.67,40.34-10.33-.58-4.24,11.25s5.06,2.48,13.9,1.55l5.45-7.92L1348.61,232c.28.66,5.59,9.23,5.64,9.47-.19.25-8.55,9.43-8.55,9.43l5.6-.44,10.9-8.73S1347.64,218.15,1347.59,218.27Z"/><path class="cls-2" d="M23.13,218.19,3.64,262.5l-.46-.05V275l5.59-7.42,14.82-34c.28.75,5.79,10.58,5.84,10.86-.23.26-10,10.12-10,10.12l6.27-.22,12.61-9.22S23.18,218.05,23.13,218.19Z"/><path id="Musica-73" data-name="Musica" class="cls-2" d="M26.74,315.51,13.18,346.34l-8-.8-3.68,8.6s3.85,2.11,10.76,1.68l4.51-6,10.31-23.64c.2.53,4,7.37,4.07,7.56-.16.19-7,7-7,7l4.37-.15,8.77-6.42S26.78,315.41,26.74,315.51Z"/><path id="Musica-74" data-name="Musica" class="cls-2" d="M51.81,317.36l17.54,39.56-7.7,6.91,5,10.94S72,372.94,77.54,366l-1.77-9.45L62.26,326.32c.67.27,10.48,2.55,10.7,2.68,0,.31.65,12.71.65,12.71l3.63-4.28,1.5-13.88S51.76,317.24,51.81,317.36Z"/><path id="Musica-75" data-name="Musica" class="cls-2" d="M135.84,316.4l-26,59.22-15.4-1.54-7.06,16.53s7.39,4,20.66,3.22l8.66-11.48L136.47,337c.37,1,7.73,14.15,7.8,14.52-.3.36-13.38,13.52-13.38,13.52l8.39-.28,16.85-12.33S135.92,316.21,135.84,316.4Z"/><path id="Musica-76" data-name="Musica" class="cls-2" d="M166.54,319.65l22.27,46.23-8.87,8.49,6.32,12.79s6.25-2.38,12.6-10.8l-2.46-11.13-17.14-35.36c.79.3,12.51,2.64,12.77,2.79.06.36,1.25,15,1.25,15l4.16-5.21L198.69,326S166.47,319.5,166.54,319.65Z"/><path id="Musica-77" data-name="Musica" class="cls-2" d="M240.44,317l-15.25,37.25-9.92-.84-4.12,10.4s4.84,2.47,13.33,1.85l5.27-7.25,11.59-28.55c.27.62,5.31,8.79,5.36,9-.18.22-8.25,8.56-8.25,8.56l5.37-.25,10.51-7.84S240.49,316.89,240.44,317Z"/><path id="Musica-78" data-name="Musica" class="cls-2" d="M277.35,316.53,296,361.21l-8.79,7.54,5.3,12.36s6-1.91,12.42-9.52L303.15,361l-14.34-34.17c.74.32,11.65,3.12,11.89,3.28,0,.35.4,14.22.4,14.22l4.18-4.68,2-15.49S277.3,316.39,277.35,316.53Z"/><path id="Musica-79" data-name="Musica" class="cls-2" d="M366.22,315.1,343,369.87l-14.18-1.22-6.29,15.28s6.85,3.63,19,2.71L349.4,376l17.65-42c.35.92,7.29,12.91,7.36,13.25-.28.33-12.14,12.6-12.14,12.6l7.71-.37,15.34-11.54S366.29,314.93,366.22,315.1Z"/><path id="Musica-80" data-name="Musica" class="cls-2" d="M396.38,318.87l19.68,27.34-4.77,6.5,5.55,7.54s3.77-2.25,6.91-8.42l-2.86-6.91L405.77,324c.55.1,8.39.27,8.57.34.08.23,2.53,9.58,2.53,9.58l2.09-3.84-1.08-10.82S396.32,318.79,396.38,318.87Z"/><path id="Musica-81" data-name="Musica" class="cls-2" d="M464.78,316.42,449.1,356.75l-10.33-.58-4.24,11.26s5.06,2.48,13.9,1.55l5.45-7.92,11.92-30.91c.27.66,5.58,9.22,5.63,9.47-.19.24-8.55,9.42-8.55,9.42l5.6-.43,10.9-8.73S464.82,316.3,464.78,316.42Z"/><path id="Musica-82" data-name="Musica" class="cls-2" d="M489.21,316.61l29.38,57.64L507.65,385.2,516,401.13s7.82-3.17,15.58-14l-3.41-14-22.61-44.07c1,.36,15.85,3,16.18,3.15.08.46,2,18.92,2,18.92l5.09-6.68,1.12-20.84S489.12,316.44,489.21,316.61Z"/><path id="Musica-83" data-name="Musica" class="cls-2" d="M587.86,316.78,564.8,362.63l-12.14-1.85-6.27,12.8s5.69,3.51,16.24,3.4l7.32-8.73,17.56-35.15c.25.81,5.55,11.52,5.59,11.82-.26.27-11.16,10.16-11.16,10.16l6.66.12,13.85-9.08S587.93,316.63,587.86,316.78Z"/><path id="Musica-84" data-name="Musica" class="cls-2" d="M615.82,321,633.71,357l-7.18,6.89,5.08,10s5-2,10.2-8.78l-2-8.75-13.77-27.57c.65.22,10.1,1.83,10.31,1.94,0,.29,1,11.85,1,11.85l3.36-4.2,1-13.06S615.77,320.86,615.82,321Z"/><path id="Musica-85" data-name="Musica" class="cls-2" d="M694.78,317.85l-19.48,44.3L663.78,361l-5.29,12.37s5.54,3,15.46,2.41l6.48-8.59,14.82-34c.28.76,5.79,10.59,5.84,10.87-.23.26-10,10.11-10,10.11l6.27-.21L710,344.77S694.84,317.71,694.78,317.85Z"/><path id="Musica-86" data-name="Musica" class="cls-2" d="M720.91,316.53,745,370.91l-10.58,9.51,6.85,15s7.33-2.52,15-12l-2.44-13-18.57-41.58c.91.37,14.4,3.51,14.7,3.69,0,.42.89,17.47.89,17.47l5-5.88,2.06-19.08S720.83,316.36,720.91,316.53Z"/><path id="Musica-87" data-name="Musica" class="cls-2" d="M804,316.26l-13.56,30.83-8-.8-3.68,8.61s3.85,2.1,10.76,1.68l4.51-6L804.3,327c.19.52,4,7.37,4.07,7.56-.16.18-7,7-7,7l4.37-.15,8.77-6.42S804,316.17,804,316.26Z"/><path id="Musica-88" data-name="Musica" class="cls-2" d="M829.05,318.11l17.54,39.56-7.7,6.92,5,10.94s5.33-1.83,10.91-8.76L853,357.32,839.5,327.07c.66.27,10.48,2.55,10.69,2.69,0,.31.65,12.7.65,12.7l3.64-4.27,1.5-13.88S829,318,829.05,318.11Z"/><path id="Musica-89" data-name="Musica" class="cls-2" d="M913.08,317.15l-26,59.22-15.4-1.54-7.07,16.53s7.4,4,20.67,3.23l8.65-11.48,19.82-45.39c.37,1,7.73,14.15,7.8,14.52-.3.35-13.38,13.52-13.38,13.52l8.39-.29,16.84-12.33S913.16,317,913.08,317.15Z"/><path id="Musica-90" data-name="Musica" class="cls-2" d="M943.77,320.4l22.28,46.24-8.87,8.49,6.32,12.78s6.25-2.37,12.6-10.79L973.64,366l-17.15-35.35c.8.3,12.52,2.63,12.78,2.78.06.37,1.25,15,1.25,15l4.15-5.2,1.26-16.52S943.7,320.26,943.77,320.4Z"/><path id="Musica-91" data-name="Musica" class="cls-2" d="M1017.68,317.76,1002.42,355l-9.91-.84-4.13,10.39s4.85,2.47,13.34,1.85l5.26-7.25,11.6-28.55c.26.63,5.31,8.79,5.36,9-.19.22-8.25,8.57-8.25,8.57l5.37-.25,10.5-7.85S1017.72,317.65,1017.68,317.76Z"/><path id="Musica-92" data-name="Musica" class="cls-2" d="M1054.59,317.29,1073.2,362l-8.79,7.54,5.3,12.36s6-1.92,12.42-9.52l-1.75-10.61-14.33-34.17c.73.32,11.65,3.12,11.89,3.27,0,.35.4,14.23.4,14.23l4.18-4.69,2-15.49S1054.53,317.15,1054.59,317.29Z"/><path id="Musica-93" data-name="Musica" class="cls-2" d="M1143.46,315.86l-23.2,54.77-14.18-1.23-6.29,15.29s6.85,3.62,19,2.71l7.81-10.66,17.65-42c.35.92,7.29,12.91,7.36,13.25-.28.33-12.14,12.6-12.14,12.6l7.71-.37,15.34-11.55S1143.53,315.69,1143.46,315.86Z"/><path id="Musica-94" data-name="Musica" class="cls-2" d="M1173.61,319.63,1193.29,347l-4.76,6.5,5.55,7.53s3.77-2.24,6.91-8.41l-2.86-6.92L1183,324.79c.55.1,8.4.27,8.58.33.08.23,2.53,9.58,2.53,9.58l2.09-3.84-1.08-10.81S1173.55,319.55,1173.61,319.63Z"/><path id="Musica-95" data-name="Musica" class="cls-2" d="M1242,317.18l-15.67,40.33-10.33-.58-4.24,11.25s5.06,2.49,13.9,1.55l5.45-7.92L1243,330.9c.28.66,5.59,9.23,5.64,9.48-.19.24-8.55,9.42-8.55,9.42l5.6-.44,10.9-8.73S1242.06,317.05,1242,317.18Z"/><path id="Musica-96" data-name="Musica" class="cls-2" d="M1266.45,317.37,1295.83,375,1284.89,386l8.32,15.93s7.81-3.17,15.58-14l-3.41-14-22.61-44.06c1,.35,15.85,3,16.18,3.15.08.45,2,18.91,2,18.91l5.09-6.67,1.11-20.85S1266.36,317.19,1266.45,317.37Z"/><path class="cls-2" d="M1342,363.38l-12.14-1.85-6.27,12.81s5.69,3.5,16.24,3.4l7.32-8.74,17.56-35.15a8.54,8.54,0,0,0,.35.81V317.53Z"/><path class="cls-2" d="M1359.18,355.84l5.92.1v-5.48Z"/><path id="Musica-97" data-name="Musica" class="cls-2" d="M46.9,413.52,71,467.91l-10.59,9.51,6.86,15s7.33-2.52,15-12l-2.44-13L61.27,425.84c.91.37,14.4,3.51,14.7,3.69,0,.43.89,17.47.89,17.47l5-5.88L83.92,422S46.83,413.36,46.9,413.52Z"/><path id="Musica-98" data-name="Musica" class="cls-2" d="M130,413.25l-13.56,30.84-8-.81-3.68,8.61s3.85,2.1,10.76,1.68l4.51-6L130.3,424c.19.53,4,7.37,4.06,7.56-.15.18-7,7-7,7l4.36-.15,8.78-6.42S130,413.16,130,413.25Z"/><path id="Musica-99" data-name="Musica" class="cls-2" d="M155.05,415.1l17.54,39.56-7.7,6.92,5,10.94s5.33-1.83,10.91-8.76L179,454.31,165.5,424.06c.66.28,10.48,2.56,10.69,2.69,0,.31.65,12.71.65,12.71l3.64-4.28L182,421.3S155,415,155.05,415.1Z"/><path id="Musica-100" data-name="Musica" class="cls-2" d="M239.08,414.15l-26,59.22-15.4-1.55-7.07,16.53s7.4,4,20.67,3.23l8.65-11.48,19.82-45.39c.36,1,7.73,14.15,7.8,14.52-.31.35-13.39,13.52-13.39,13.52l8.39-.29,16.85-12.32S239.16,414,239.08,414.15Z"/><path id="Musica-101" data-name="Musica" class="cls-2" d="M269.77,417.39l22.28,46.24-8.88,8.49,6.33,12.78s6.25-2.37,12.6-10.79L299.64,463l-17.15-35.35c.8.3,12.52,2.63,12.78,2.78.06.37,1.25,15,1.25,15l4.15-5.2,1.26-16.52S269.7,417.25,269.77,417.39Z"/><path id="Musica-102" data-name="Musica" class="cls-2" d="M343.68,414.76,328.42,452l-9.91-.84-4.13,10.4s4.84,2.46,13.33,1.85l5.27-7.25,11.6-28.56c.26.63,5.31,8.79,5.36,9-.19.23-8.25,8.57-8.25,8.57l5.37-.25,10.5-7.85S343.72,414.64,343.68,414.76Z"/><path id="Musica-103" data-name="Musica" class="cls-2" d="M380.59,414.28,399.2,459l-8.79,7.54,5.3,12.36s6-1.92,12.42-9.52l-1.75-10.61-14.33-34.17c.73.32,11.65,3.12,11.88,3.28,0,.34.41,14.22.41,14.22l4.18-4.69,2-15.48S380.53,414.14,380.59,414.28Z"/><path id="Musica-104" data-name="Musica" class="cls-2" d="M469.46,412.85l-23.21,54.77-14.18-1.22-6.28,15.28s6.85,3.63,19,2.71l7.81-10.66,17.65-42c.35.92,7.29,12.91,7.35,13.25-.27.33-12.13,12.6-12.13,12.6l7.71-.37,15.33-11.54S469.53,412.68,469.46,412.85Z"/><path id="Musica-105" data-name="Musica" class="cls-2" d="M499.61,416.62,519.29,444l-4.76,6.5,5.55,7.54s3.76-2.25,6.91-8.42l-2.86-6.92L509,421.78c.55.1,8.39.27,8.58.34.08.23,2.52,9.57,2.52,9.57l2.09-3.84L521.12,417S499.55,416.54,499.61,416.62Z"/><path id="Musica-106" data-name="Musica" class="cls-2" d="M568,414.17,552.34,454.5,542,453.92l-4.23,11.25s5.06,2.49,13.9,1.55l5.45-7.92L569,427.89c.28.67,5.58,9.23,5.64,9.48-.19.24-8.55,9.42-8.55,9.42l5.6-.44,10.9-8.72S568.06,414,568,414.17Z"/><path id="Musica-107" data-name="Musica" class="cls-2" d="M592.45,414.36,621.82,472,610.88,483l8.33,15.93s7.81-3.17,15.58-14l-3.41-14-22.61-44.07c1,.35,15.85,3,16.18,3.15.08.46,2,18.92,2,18.92l5.08-6.68,1.12-20.85S592.36,414.18,592.45,414.36Z"/><path id="Musica-108" data-name="Musica" class="cls-2" d="M691.1,414.52,668,460.38l-12.14-1.86-6.28,12.81s5.7,3.51,16.25,3.4l7.32-8.74,17.56-35.15c.25.82,5.55,11.53,5.59,11.83-.26.26-11.16,10.16-11.16,10.16l6.66.12,13.85-9.08S691.17,414.38,691.1,414.52Z"/><path id="Musica-109" data-name="Musica" class="cls-2" d="M719.06,418.72,737,454.79l-7.18,6.88,5.07,10s5.06-2,10.2-8.79l-2-8.74-13.77-27.57c.64.22,10.1,1.82,10.31,1.94,0,.28,1,11.85,1,11.85l3.36-4.2,1-13.07S719,418.61,719.06,418.72Z"/><path id="Musica-110" data-name="Musica" class="cls-2" d="M798,415.6l-19.48,44.3L767,458.75l-5.28,12.36s5.53,3,15.46,2.42l6.47-8.59,14.83-34c.27.76,5.78,10.59,5.84,10.86-.23.27-10,10.12-10,10.12l6.28-.22,12.6-9.22S798.08,415.46,798,415.6Z"/><path id="Musica-111" data-name="Musica" class="cls-2" d="M824.14,414.28l24.11,54.38-10.59,9.51,6.86,15s7.33-2.52,15-12l-2.44-13L838.5,426.59c.92.38,14.41,3.51,14.7,3.7.06.42.9,17.47.9,17.47l5-5.88,2.06-19.09S824.07,414.11,824.14,414.28Z"/><path id="Musica-112" data-name="Musica" class="cls-2" d="M907.21,414l-13.55,30.83-8-.8-3.68,8.6s3.85,2.11,10.76,1.68l4.5-6,10.32-23.63c.19.52,4,7.36,4.06,7.56-.16.18-7,7-7,7l4.37-.15,8.77-6.41S907.26,413.91,907.21,414Z"/><path id="Musica-113" data-name="Musica" class="cls-2" d="M932.29,415.86l17.54,39.56-7.71,6.92,5,10.94s5.33-1.84,10.91-8.77l-1.78-9.44-13.5-30.25c.66.27,10.48,2.55,10.69,2.68,0,.31.65,12.71.65,12.71l3.64-4.27,1.5-13.89S932.23,415.74,932.29,415.86Z"/><path id="Musica-114" data-name="Musica" class="cls-2" d="M1016.32,414.9l-26,59.22-15.41-1.54-7.06,16.53s7.4,4,20.67,3.22l8.65-11.47,19.81-45.39c.37,1,7.74,14.15,7.81,14.52-.31.35-13.39,13.51-13.39,13.51l8.39-.28,16.85-12.33S1016.4,414.72,1016.32,414.9Z"/><path id="Musica-115" data-name="Musica" class="cls-2" d="M1047,418.15l22.27,46.24-8.87,8.49,6.32,12.78s6.26-2.38,12.61-10.8l-2.46-11.13-17.15-35.35c.8.29,12.52,2.63,12.78,2.78,0,.36,1.25,15,1.25,15l4.15-5.21,1.26-16.51S1046.94,418,1047,418.15Z"/><path id="Musica-116" data-name="Musica" class="cls-2" d="M1120.91,415.51l-15.25,37.25-9.91-.84-4.13,10.4s4.84,2.47,13.33,1.85l5.27-7.25,11.6-28.55c.26.63,5.3,8.79,5.36,9-.19.22-8.26,8.56-8.26,8.56l5.38-.24,10.5-7.85S1121,415.39,1120.91,415.51Z"/><path id="Musica-117" data-name="Musica" class="cls-2" d="M1157.83,415l18.6,44.68-8.78,7.54,5.29,12.36s6-1.91,12.42-9.52l-1.74-10.61-14.34-34.16c.74.32,11.66,3.12,11.89,3.27,0,.35.41,14.23.41,14.23l4.18-4.69,2-15.49S1157.77,414.9,1157.83,415Z"/><path id="Musica-118" data-name="Musica" class="cls-2" d="M1246.7,413.6l-23.21,54.78-14.18-1.23L1203,482.44s6.85,3.62,19,2.7l7.82-10.66,17.65-42c.35.93,7.29,12.92,7.35,13.26-.27.32-12.13,12.59-12.13,12.59l7.71-.37,15.33-11.54S1246.77,413.43,1246.7,413.6Z"/><path id="Musica-119" data-name="Musica" class="cls-2" d="M1276.85,417.38l19.68,27.33-4.76,6.5,5.54,7.54s3.77-2.25,6.91-8.42l-2.86-6.91-15.12-20.89c.55.1,8.39.27,8.58.34.07.23,2.52,9.58,2.52,9.58l2.09-3.84-1.07-10.82S1276.79,417.29,1276.85,417.38Z"/><path id="Musica-120" data-name="Musica" class="cls-2" d="M1345.25,414.92l-15.67,40.34-10.34-.58L1315,465.93s5.06,2.48,13.91,1.55l5.45-7.92,11.91-30.91c.28.66,5.58,9.23,5.64,9.47-.19.25-8.55,9.43-8.55,9.43l5.6-.44,10.9-8.73S1345.3,414.8,1345.25,414.92Z"/><path class="cls-2" d="M20.78,414.84,1.3,459.15l-.47,0v12.5l5.6-7.42,14.82-33.95c.28.75,5.79,10.58,5.84,10.86-.23.26-10,10.11-10,10.11l6.28-.21L36,441.77S20.84,414.7,20.78,414.84Z"/><path id="Musica-121" data-name="Musica" class="cls-2" d="M28.4,512.15,14.84,543l-8-.81-3.68,8.61S7,552.9,13.9,552.47l4.51-6,10.31-23.63c.19.53,4,7.37,4.06,7.56-.15.19-7,7-7,7l4.36-.15L39,530.89S28.44,512.06,28.4,512.15Z"/><path id="Musica-122" data-name="Musica" class="cls-2" d="M53.47,514,71,553.56l-7.7,6.92,5,10.94s5.33-1.83,10.91-8.76l-1.77-9.45L63.92,523c.66.28,10.48,2.56,10.69,2.69,0,.31.65,12.71.65,12.71l3.64-4.28,1.5-13.88S53.42,513.88,53.47,514Z"/><path id="Musica-123" data-name="Musica" class="cls-2" d="M137.5,513.05l-26,59.22-15.4-1.54L89,587.25s7.4,4,20.67,3.23L118.31,579l19.82-45.39c.36,1,7.73,14.15,7.8,14.52-.31.35-13.39,13.52-13.39,13.52l8.39-.29L157.78,549S137.58,512.86,137.5,513.05Z"/><path id="Musica-124" data-name="Musica" class="cls-2" d="M168.19,516.29l22.28,46.24L181.59,571l6.33,12.79s6.25-2.38,12.6-10.8l-2.46-11.14-17.15-35.35c.8.3,12.52,2.64,12.78,2.79.06.36,1.25,15,1.25,15l4.15-5.21,1.26-16.51S168.12,516.15,168.19,516.29Z"/><path id="Musica-125" data-name="Musica" class="cls-2" d="M242.1,513.66l-15.26,37.25-9.91-.84-4.13,10.4s4.84,2.47,13.33,1.85l5.27-7.25L243,526.52c.26.62,5.31,8.78,5.36,9-.19.22-8.25,8.56-8.25,8.56l5.37-.25L256,536S242.14,513.54,242.1,513.66Z"/><path id="Musica-126" data-name="Musica" class="cls-2" d="M279,513.18l18.61,44.68-8.79,7.54,5.3,12.36s6-1.92,12.42-9.52l-1.75-10.61-14.33-34.17c.73.32,11.65,3.12,11.88,3.28,0,.34.41,14.22.41,14.22l4.18-4.69,2-15.48S279,513,279,513.18Z"/><path id="Musica-127" data-name="Musica" class="cls-2" d="M367.88,511.75l-23.21,54.77-14.18-1.22-6.28,15.28s6.85,3.63,19,2.71l7.81-10.66,17.65-42c.35.92,7.29,12.91,7.35,13.25-.27.33-12.13,12.6-12.13,12.6l7.71-.37L387,544.59S368,511.58,367.88,511.75Z"/><path id="Musica-128" data-name="Musica" class="cls-2" d="M398,515.52l19.68,27.34-4.76,6.5,5.55,7.54s3.76-2.25,6.91-8.42l-2.86-6.91-15.13-20.89c.55.1,8.39.27,8.58.34.08.23,2.52,9.57,2.52,9.57l2.09-3.83-1.07-10.82S398,515.44,398,515.52Z"/><path id="Musica-129" data-name="Musica" class="cls-2" d="M466.43,513.07,450.76,553.4l-10.34-.58-4.23,11.25s5.06,2.49,13.9,1.56l5.45-7.93,11.91-30.91c.28.67,5.58,9.23,5.64,9.48-.19.24-8.55,9.42-8.55,9.42l5.6-.43,10.9-8.73S466.48,512.94,466.43,513.07Z"/><path id="Musica-130" data-name="Musica" class="cls-2" d="M490.87,513.26l29.37,57.64-10.94,11,8.33,15.93s7.81-3.17,15.58-14l-3.41-14-22.61-44.07c1,.35,15.85,3,16.18,3.15.08.46,2,18.92,2,18.92l5.08-6.68,1.12-20.85S490.78,513.08,490.87,513.26Z"/><path id="Musica-131" data-name="Musica" class="cls-2" d="M589.52,513.43l-23.06,45.85-12.14-1.86L548,570.23s5.7,3.51,16.25,3.4l7.32-8.74,17.56-35.15c.25.82,5.55,11.53,5.59,11.83-.26.26-11.16,10.16-11.16,10.16l6.66.12,13.85-9.08S589.59,513.28,589.52,513.43Z"/><path id="Musica-132" data-name="Musica" class="cls-2" d="M617.48,517.62l17.89,36.07-7.18,6.88,5.07,10s5.06-2,10.2-8.79l-2-8.74-13.77-27.57c.64.22,10.1,1.82,10.31,1.94,0,.28,1,11.85,1,11.85l3.36-4.2,1-13.07S617.42,517.51,617.48,517.62Z"/><path id="Musica-133" data-name="Musica" class="cls-2" d="M696.44,514.5,677,558.8l-11.53-1.15L660.15,570s5.53,3,15.46,2.42l6.47-8.59,14.83-34c.27.76,5.78,10.59,5.84,10.87-.23.26-10,10.11-10,10.11l6.28-.22,12.6-9.22S696.5,514.36,696.44,514.5Z"/><path id="Musica-134" data-name="Musica" class="cls-2" d="M722.56,513.18l24.11,54.38-10.59,9.51,6.86,15s7.33-2.52,15-12l-2.44-13L736.92,525.5c.92.37,14.41,3.5,14.7,3.69.06.42.9,17.47.9,17.47l5-5.88,2.06-19.09S722.49,513,722.56,513.18Z"/><path id="Musica-135" data-name="Musica" class="cls-2" d="M805.63,512.91l-13.55,30.83-8-.8-3.68,8.61s3.85,2.1,10.76,1.67l4.5-6L806,523.62c.19.52,4,7.36,4.06,7.56-.16.18-7,7-7,7l4.37-.14,8.77-6.42S805.68,512.81,805.63,512.91Z"/><path id="Musica-136" data-name="Musica" class="cls-2" d="M830.71,514.76l17.54,39.56-7.71,6.92,5,10.94s5.33-1.84,10.91-8.76L854.66,554l-13.5-30.25c.66.27,10.48,2.55,10.69,2.69,0,.3.65,12.7.65,12.7l3.64-4.27,1.5-13.89S830.65,514.64,830.71,514.76Z"/><path id="Musica-137" data-name="Musica" class="cls-2" d="M914.74,513.8,888.7,573l-15.41-1.54L866.23,588s7.4,4,20.67,3.22l8.65-11.47,19.81-45.39c.37,1,7.74,14.15,7.81,14.52-.31.35-13.39,13.52-13.39,13.52l8.39-.29L935,549.79S914.82,513.62,914.74,513.8Z"/><path id="Musica-138" data-name="Musica" class="cls-2" d="M945.43,517.05l22.27,46.24-8.87,8.49,6.32,12.78s6.26-2.37,12.61-10.8l-2.46-11.13-17.15-35.35c.8.3,12.52,2.63,12.78,2.78.05.37,1.25,15,1.25,15l4.15-5.21,1.26-16.51S945.36,516.91,945.43,517.05Z"/><path id="Musica-139" data-name="Musica" class="cls-2" d="M1019.33,514.41l-15.25,37.26-9.91-.84L990,561.22s4.84,2.47,13.33,1.85l5.27-7.25,11.6-28.55c.26.63,5.3,8.79,5.36,9-.19.22-8.26,8.56-8.26,8.56l5.38-.24,10.5-7.85S1019.38,514.3,1019.33,514.41Z"/><path id="Musica-140" data-name="Musica" class="cls-2" d="M1056.25,513.93l18.6,44.68-8.78,7.55,5.29,12.35s6-1.91,12.42-9.52L1082,558.38l-14.34-34.16c.74.32,11.66,3.12,11.89,3.27,0,.35.41,14.23.41,14.23l4.18-4.69,2-15.49S1056.19,513.8,1056.25,513.93Z"/><path id="Musica-141" data-name="Musica" class="cls-2" d="M1145.12,512.5l-23.21,54.78-14.18-1.23-6.29,15.29s6.85,3.62,19,2.7l7.82-10.66,17.65-42c.35.92,7.29,12.91,7.35,13.25-.27.33-12.13,12.59-12.13,12.59l7.71-.37,15.33-11.54S1145.19,512.33,1145.12,512.5Z"/><path id="Musica-142" data-name="Musica" class="cls-2" d="M1175.27,516.28,1195,543.61l-4.76,6.5,5.54,7.54s3.77-2.25,6.91-8.42l-2.86-6.91-15.12-20.89c.55.11,8.39.27,8.58.34.07.23,2.52,9.58,2.52,9.58l2.09-3.84-1.07-10.82S1175.21,516.19,1175.27,516.28Z"/><path id="Musica-143" data-name="Musica" class="cls-2" d="M1243.67,513.82,1228,554.16l-10.34-.58-4.24,11.25s5.06,2.48,13.91,1.55l5.45-7.92,11.91-30.91c.28.66,5.58,9.23,5.64,9.47-.19.25-8.55,9.43-8.55,9.43l5.6-.44,10.9-8.73S1243.72,513.7,1243.67,513.82Z"/><path id="Musica-144" data-name="Musica" class="cls-2" d="M1268.11,514l29.37,57.64-10.94,11,8.33,15.93s7.81-3.17,15.58-14l-3.42-14-22.6-44.06c1,.35,15.85,3,16.18,3.14.08.46,2,18.92,2,18.92l5.08-6.68,1.12-20.84S1268,513.84,1268.11,514Z"/><path class="cls-2" d="M1342.7,560l-12.14-1.85-6.28,12.8s5.7,3.51,16.24,3.41l7.33-8.74,17.56-35.15c0,.11.16.4.34.81V514.18Z"/><path class="cls-2" d="M1360.84,552.48l5.91.11v-5.48Z"/><path id="Musica-145" data-name="Musica" class="cls-2" d="M50.08,610.64,74.19,665,63.6,674.53l6.86,15s7.32-2.52,15-12l-2.44-13L64.44,623c.92.37,14.41,3.51,14.7,3.69,0,.43.9,17.47.9,17.47l5-5.88,2.06-19.08S50,610.47,50.08,610.64Z"/><path id="Musica-146" data-name="Musica" class="cls-2" d="M133.15,610.37,119.59,641.2l-8-.8L107.9,649s3.85,2.1,10.76,1.68l4.5-6,10.32-23.63c.19.52,4,7.37,4.06,7.56-.16.18-7,7-7,7l4.37-.15,8.77-6.42S133.19,610.28,133.15,610.37Z"/><path id="Musica-147" data-name="Musica" class="cls-2" d="M158.23,612.22l17.53,39.56-7.7,6.92,5,10.94s5.33-1.83,10.91-8.76l-1.78-9.45-13.51-30.25c.67.27,10.48,2.55,10.7,2.69,0,.31.65,12.7.65,12.7l3.64-4.27,1.5-13.88S158.17,612.1,158.23,612.22Z"/><path id="Musica-148" data-name="Musica" class="cls-2" d="M242.26,611.26l-26,59.22-15.41-1.54-7.06,16.53s7.4,4,20.67,3.23l8.65-11.48,19.81-45.39c.37,1,7.74,14.15,7.81,14.52-.31.35-13.39,13.52-13.39,13.52l8.39-.29,16.85-12.33S242.34,611.08,242.26,611.26Z"/><path id="Musica-149" data-name="Musica" class="cls-2" d="M273,614.51l22.27,46.24-8.87,8.49L292.67,682s6.25-2.37,12.6-10.79l-2.45-11.14-17.15-35.35c.8.3,12.52,2.63,12.78,2.78.05.37,1.25,15,1.25,15l4.15-5.2,1.25-16.52S272.88,614.37,273,614.51Z"/><path id="Musica-150" data-name="Musica" class="cls-2" d="M346.85,611.87,331.6,649.13l-9.92-.84-4.12,10.39s4.84,2.47,13.33,1.85l5.27-7.24,11.6-28.56c.26.63,5.3,8.79,5.36,9-.19.22-8.26,8.57-8.26,8.57l5.38-.25,10.5-7.85S346.9,611.76,346.85,611.87Z"/><path id="Musica-151" data-name="Musica" class="cls-2" d="M383.77,611.4l18.6,44.68-8.79,7.54,5.3,12.36s6-1.92,12.42-9.52l-1.74-10.61-14.34-34.17c.74.32,11.66,3.12,11.89,3.27,0,.35.41,14.23.41,14.23l4.17-4.69,2-15.48S383.71,611.26,383.77,611.4Z"/><path id="Musica-152" data-name="Musica" class="cls-2" d="M472.63,610l-23.2,54.77-14.18-1.23L429,678.8s6.85,3.62,19,2.71l7.81-10.66,17.66-42c.35.92,7.28,12.91,7.35,13.25-.27.33-12.14,12.6-12.14,12.6l7.71-.37,15.34-11.55S472.71,609.8,472.63,610Z"/><path id="Musica-153" data-name="Musica" class="cls-2" d="M502.79,613.74l19.68,27.34-4.76,6.5,5.54,7.53s3.77-2.24,6.91-8.41l-2.86-6.92L512.18,618.9c.55.1,8.39.27,8.58.33.07.23,2.52,9.58,2.52,9.58l2.09-3.84-1.08-10.81S502.73,613.66,502.79,613.74Z"/><path id="Musica-154" data-name="Musica" class="cls-2" d="M571.19,611.29l-15.67,40.33L545.18,651l-4.24,11.25s5.06,2.49,13.91,1.55l5.44-7.92L572.21,625c.27.66,5.58,9.23,5.64,9.48-.2.24-8.55,9.42-8.55,9.42l5.6-.44,10.89-8.73S571.24,611.16,571.19,611.29Z"/><path id="Musica-155" data-name="Musica" class="cls-2" d="M595.63,611.48,625,669.12l-10.94,11L622.39,696s7.81-3.17,15.57-14l-3.41-14L612,624c1,.35,15.85,3,16.18,3.15.08.45,2,18.91,2,18.91l5.09-6.67,1.12-20.85S595.53,611.3,595.63,611.48Z"/><path id="Musica-156" data-name="Musica" class="cls-2" d="M694.27,611.64l-23.06,45.85-12.14-1.85-6.27,12.81s5.69,3.5,16.24,3.4l7.33-8.74L693.93,628c.25.82,5.54,11.53,5.58,11.83-.25.26-11.15,10.16-11.15,10.16l6.65.11L708.87,641S694.34,611.5,694.27,611.64Z"/><path id="Musica-157" data-name="Musica" class="cls-2" d="M722.23,615.84l17.89,36.06-7.18,6.89,5.08,10s5.05-2,10.2-8.79l-2-8.74-13.77-27.57c.64.22,10.1,1.82,10.31,1.93,0,.29,1,11.86,1,11.86l3.37-4.2,1.05-13.07S722.18,615.73,722.23,615.84Z"/><path id="Musica-158" data-name="Musica" class="cls-2" d="M801.2,612.71,781.71,657l-11.52-1.15-5.28,12.36s5.53,3,15.46,2.41l6.47-8.58,14.82-34c.28.75,5.79,10.58,5.84,10.86-.23.27-10,10.12-10,10.12l6.28-.22,12.6-9.22S801.26,612.58,801.2,612.71Z"/><path id="Musica-159" data-name="Musica" class="cls-2" d="M827.32,611.4l24.11,54.38-10.59,9.51,6.85,15s7.33-2.52,15-12.05l-2.44-13-18.57-41.58c.91.38,14.41,3.51,14.7,3.7,0,.42.9,17.46.9,17.46l5-5.87,2.06-19.09S827.24,611.23,827.32,611.4Z"/><path id="Musica-160" data-name="Musica" class="cls-2" d="M910.39,611.13,896.83,642l-8-.8-3.68,8.6s3.86,2.11,10.77,1.68l4.5-6,10.32-23.64c.19.53,4,7.37,4.06,7.56-.16.19-7,7-7,7l4.37-.15,8.77-6.42S910.43,611,910.39,611.13Z"/><path id="Musica-161" data-name="Musica" class="cls-2" d="M935.47,613,953,652.54l-7.7,6.91,5,10.94s5.33-1.83,10.9-8.76l-1.77-9.45-13.51-30.24c.67.27,10.48,2.55,10.7,2.68,0,.31.65,12.71.65,12.71l3.64-4.28,1.49-13.88S935.41,612.86,935.47,613Z"/><path id="Musica-162" data-name="Musica" class="cls-2" d="M1019.49,612l-26,59.22-15.4-1.54L971,686.23s7.39,4,20.66,3.22l8.66-11.48,19.81-45.39c.37,1,7.73,14.15,7.8,14.52-.3.36-13.38,13.52-13.38,13.52l8.39-.28L1039.78,648S1019.57,611.83,1019.49,612Z"/><path id="Musica-163" data-name="Musica" class="cls-2" d="M1050.19,615.27l22.27,46.23-8.87,8.5,6.32,12.78s6.25-2.38,12.6-10.8l-2.46-11.13-17.14-35.36c.8.3,12.52,2.64,12.78,2.79,0,.36,1.24,15,1.24,15l4.16-5.21,1.25-16.51S1050.12,615.12,1050.19,615.27Z"/><path id="Musica-164" data-name="Musica" class="cls-2" d="M1124.09,612.63l-15.25,37.25-9.92-.84-4.12,10.4s4.84,2.47,13.33,1.85l5.27-7.25,11.6-28.55c.26.63,5.3,8.79,5.35,9-.18.22-8.25,8.56-8.25,8.56l5.37-.25L1138,635S1124.14,612.51,1124.09,612.63Z"/><path id="Musica-165" data-name="Musica" class="cls-2" d="M1161,612.15l18.6,44.68-8.79,7.54,5.3,12.36s6-1.91,12.42-9.52l-1.74-10.61-14.34-34.17c.74.33,11.65,3.12,11.89,3.28,0,.35.4,14.23.4,14.23l4.18-4.69,2-15.49S1161,612,1161,612.15Z"/><path id="Musica-166" data-name="Musica" class="cls-2" d="M1249.87,610.72l-23.2,54.77-14.18-1.22-6.29,15.28s6.85,3.63,19,2.71l7.81-10.66,17.65-42c.36.92,7.29,12.91,7.36,13.25-.28.33-12.14,12.6-12.14,12.6l7.71-.37L1269,643.56S1249.94,610.55,1249.87,610.72Z"/><path id="Musica-167" data-name="Musica" class="cls-2" d="M1280,614.5l19.68,27.33-4.77,6.5,5.55,7.54s3.77-2.25,6.91-8.42l-2.86-6.91-15.12-20.89c.55.1,8.39.27,8.57.34.08.23,2.53,9.58,2.53,9.58l2.09-3.84-1.08-10.82S1280,614.41,1280,614.5Z"/><path id="Musica-168" data-name="Musica" class="cls-2" d="M1348.43,612l-15.67,40.33-10.34-.58-4.24,11.26s5.06,2.48,13.91,1.55l5.44-7.92,11.92-30.91c.27.66,5.58,9.22,5.63,9.47-.19.24-8.54,9.42-8.54,9.42l5.59-.43,10.9-8.73S1348.48,611.92,1348.43,612Z"/><path class="cls-2" d="M24,612,4.48,656.26l-.47,0v12.5L9.6,661.3l14.83-34c.27.76,5.78,10.59,5.83,10.87-.22.26-10,10.11-10,10.11l6.28-.21,12.6-9.23S24,611.82,24,612Z"/><path class="cls-2" d="M13.08,749.59l4.5-6L27.9,720c.19.52,4,7.37,4.06,7.56-.16.18-7,7-7,7l4.37-.15L38.13,728s-10.52-18.83-10.56-18.74L14,740.11l-8-.81-3.67,8.61S6.17,750,13.08,749.59Z"/><path class="cls-2" d="M78.38,759.78l-1.78-9.45L63.09,720.08c.67.27,10.48,2.55,10.7,2.69,0,.31.65,12.71.65,12.71l3.64-4.28,1.5-13.88s-27-6.32-26.93-6.2l17.53,39.56-7.7,6.92L67.22,768h1.46A30.26,30.26,0,0,0,78.38,759.78Z"/><path class="cls-2" d="M137.3,730.73c.37,1,7.74,14.15,7.81,14.52-.31.35-13.39,13.52-13.39,13.52l8.39-.29L157,746.15s-20.2-36.17-20.28-36L111.24,768H121Z"/><polygon class="cls-2" points="95.23 767.84 95.17 768 96.8 768 95.23 767.84"/><path class="cls-2" d="M197.24,759l-17.15-35.35c.8.3,12.52,2.63,12.78,2.78,0,.37,1.25,15,1.25,15l4.15-5.2,1.25-16.52s-32.22-6.47-32.15-6.33l22.27,46.24L180.92,768h18.31Z"/><path class="cls-2" d="M225.31,759.44l5.27-7.25,11.6-28.56c.26.63,5.3,8.79,5.36,9-.19.23-8.26,8.57-8.26,8.57l5.38-.25,10.5-7.85s-13.84-22.46-13.89-22.35L226,748l-9.92-.84L212,757.58S216.82,760.05,225.31,759.44Z"/><path class="cls-2" d="M305.72,765.36,304,754.75l-14.34-34.17c.74.32,11.65,3.12,11.89,3.28,0,.34.41,14.22.41,14.22l4.17-4.69,2-15.48s-30-7.75-29.95-7.61L296.79,755,288,762.52l2.35,5.48H303.3C304.09,767.21,304.9,766.33,305.72,765.36Z"/><path class="cls-2" d="M367.89,727.77c.35.92,7.28,12.91,7.35,13.25-.27.33-12.14,12.6-12.14,12.6l7.71-.37,15.34-11.55s-19-33-19.1-32.83l-23.2,54.77-14.18-1.23-2.3,5.59H351Z"/><path class="cls-2" d="M412.13,746.48l5.54,7.54s3.77-2.25,6.91-8.42l-2.86-6.92L406.6,717.8c.55.1,8.39.27,8.58.34.07.22,2.52,9.57,2.52,9.57l2.09-3.84-1.08-10.81s-21.56-.5-21.5-.42L416.89,740Z"/><path class="cls-2" d="M449.27,762.74l5.44-7.92,11.92-30.91c.27.66,5.58,9.23,5.64,9.48-.2.24-8.55,9.42-8.55,9.42l5.6-.44,10.89-8.73s-14.55-23.58-14.6-23.45l-15.67,40.33-10.34-.58-4.24,11.25S440.42,763.68,449.27,762.74Z"/><path class="cls-2" d="M529,767l-22.6-44.07c1,.35,15.85,3,16.18,3.15.08.46,2,18.91,2,18.91l5.09-6.67,1.12-20.85s-40.8-7.25-40.7-7.07L519.41,768h9.81Z"/><path class="cls-2" d="M570.79,762l17.56-35.15c.25.82,5.54,11.53,5.58,11.83-.25.26-11.15,10.16-11.15,10.16l6.65.11,13.86-9.07s-14.53-29.49-14.6-29.35L565.63,756.4l-12.14-1.86-6.27,12.81a13.9,13.9,0,0,0,1.29.65h17.26Z"/><path class="cls-2" d="M627.36,757.69l5.08,10s5-2,10.2-8.79l-2-8.74-13.77-27.57c.64.22,10.1,1.82,10.31,1.93,0,.29,1,11.86,1,11.86l3.37-4.2,1.05-13.07s-26-4.45-26-4.34l17.89,36.06Z"/><path class="cls-2" d="M681.26,761l14.82-34c.28.76,5.79,10.59,5.84,10.86-.23.27-10,10.12-10,10.12l6.28-.22,12.6-9.22s-15.11-27.06-15.17-26.93l-19.49,44.31-11.52-1.15-5.28,12.36a14.66,14.66,0,0,0,2.11.87H676Z"/><path class="cls-2" d="M754.67,764.2,736.1,722.61c.91.38,14.41,3.51,14.7,3.7.05.42.9,17.46.9,17.46l5-5.87,2.06-19.09s-37.1-8.68-37-8.51l24.11,54.38-3.7,3.32h13.23Z"/><path class="cls-2" d="M790.32,750.34l4.5-6,10.32-23.64c.19.53,4,7.37,4.06,7.56-.16.19-7,7-7,7l4.37-.15,8.77-6.41S804.85,709.93,804.81,710l-13.56,30.83-8-.8-3.68,8.6S783.41,750.77,790.32,750.34Z"/><path class="cls-2" d="M855.61,760.53l-1.77-9.44-13.51-30.25c.67.27,10.48,2.55,10.7,2.68,0,.31.65,12.71.65,12.71l3.64-4.28,1.49-13.88s-27-6.31-26.92-6.19l17.53,39.56-7.7,6.92,4.4,9.64h3.17A31.82,31.82,0,0,0,855.61,760.53Z"/><path class="cls-2" d="M914.54,731.49c.37,1,7.73,14.14,7.8,14.52-.3.35-13.38,13.51-13.38,13.51l8.39-.28,16.85-12.33s-20.21-36.17-20.29-36L888.81,768h9.79Z"/><path class="cls-2" d="M974.47,759.75,957.33,724.4c.8.29,12.52,2.63,12.78,2.78,0,.36,1.24,15,1.24,15l4.16-5.21,1.25-16.51s-32.22-6.48-32.15-6.33l22.27,46.24L958.94,768H976.3Z"/><path class="cls-2" d="M1002.55,760.19l5.27-7.25,11.6-28.55c.26.63,5.3,8.79,5.35,9-.18.22-8.25,8.56-8.25,8.56l5.37-.25,10.51-7.84s-13.84-22.47-13.89-22.35l-15.25,37.25-9.92-.84-4.12,10.4S994.06,760.81,1002.55,760.19Z"/><path class="cls-2" d="M1083,766.11l-1.74-10.61-14.34-34.17c.74.33,11.65,3.13,11.89,3.28,0,.35.4,14.23.4,14.23l4.18-4.69,2-15.49s-30-7.75-30-7.61l18.6,44.68-8.79,7.54,2,4.73h14C1081.82,767.41,1082.39,766.79,1083,766.11Z"/><path class="cls-2" d="M1145.12,728.52c.36.93,7.29,12.92,7.36,13.26-.28.32-12.14,12.59-12.14,12.59l7.71-.37,15.34-11.54s-19-33-19.1-32.84l-23.2,54.78-14.18-1.23-2,4.83h23.61Z"/><path class="cls-2" d="M1189.36,747.23l5.55,7.54s3.77-2.25,6.91-8.42l-2.86-6.91-15.12-20.89c.55.1,8.39.27,8.57.34.08.23,2.53,9.58,2.53,9.58l2.09-3.84L1196,713.81s-21.56-.5-21.5-.41l19.68,27.33Z"/><path class="cls-2" d="M1226.51,763.5l5.44-7.92,11.92-30.91c.27.66,5.58,9.23,5.63,9.47-.19.25-8.54,9.43-8.54,9.43l5.59-.44,10.9-8.73s-14.55-23.58-14.6-23.46l-15.67,40.34-10.34-.58L1212.6,762S1217.66,764.43,1226.51,763.5Z"/><path class="cls-2" d="M1306.21,767.73l-22.61-44.07c1,.36,15.85,3,16.18,3.15.08.46,2,18.92,2,18.92l5.09-6.68,1.12-20.84s-40.8-7.25-40.71-7.07l29,56.86h10Z"/><path class="cls-2" d="M1348,762.77l17.55-35.15c0,.11.16.39.35.81V711.3l-23.06,45.85-12.14-1.85-6.22,12.7h19.13Z"/><path class="cls-2" d="M1365.93,749.71v-5.48L1360,749.6Z"/></g></svg>